{
    "asset" : {
        "generator" : "Khronos glTF Blender I/O v1.7.33",
        "version" : "2.0"
    },
    "scene" : 0,
    "scenes" : [
        {
            "name" : "Scene",
            "nodes" : [
                0,
                1,
                2,
                3,
                4,
                18
            ]
        }
    ],
    "nodes" : [
        {
            "name" : "Empty",
            "scale" : [
                2.84298038482666,
                2.84298038482666,
                2.84298038482666
            ],
            "translation" : [
                0,
                2.4819908142089844,
                0
            ]
        },
        {
            "mesh" : 0,
            "name" : "Plane",
            "rotation" : [
                0.6532815098762512,
                -0.27059805393218994,
                0.27059805393218994,
                0.6532814502716064
            ],
            "scale" : [
                1.101487636566162,
                1.101487636566162,
                1.101487636566162
            ],
            "translation" : [
                -0.10902847349643707,
                2.8536455631256104,
                0.03519979119300842
            ]
        },
        {
            "mesh" : 1,
            "name" : "Plane.001",
            "rotation" : [
                0.6532815098762512,
                -0.27059805393218994,
                0.27059805393218994,
                0.6532814502716064
            ],
            "scale" : [
                1.101487636566162,
                1.101487636566162,
                1.101487636566162
            ],
            "translation" : [
                0.1712154597043991,
                2.8536455631256104,
                -0.24504412710666656
            ]
        },
        {
            "mesh" : 2,
            "name" : "Cube.001",
            "rotation" : [
                0.6532815098762512,
                -0.27059805393218994,
                0.27059805393218994,
                0.6532814502716064
            ],
            "scale" : [
                1.564709186553955,
                0.02715039812028408,
                1.101487636566162
            ],
            "translation" : [
                -0.03948095440864563,
                2.8536455631256104,
                -0.03434772044420242
            ]
        },
        {
            "mesh" : 3,
            "name" : "Plane.029",
            "rotation" : [
                0.6532815098762512,
                -0.27059805393218994,
                0.27059805393218994,
                0.6532814502716064
            ],
            "scale" : [
                1.2430096864700317,
                1.2430096864700317,
                1.2430096864700317
            ],
            "translation" : [
                0.21940892934799194,
                1.5267654657363892,
                1.3432879447937012
            ]
        },
        {
            "name" : "Mball.001",
            "rotation" : [
                0,
                0.09755582362413406,
                0,
                0.9952300786972046
            ],
            "scale" : [
                1.1370545625686646,
                1.0559000968933105,
                1.6221470832824707
            ],
            "translation" : [
                1.2115559577941895,
                14.275263786315918,
                -2.268190383911133
            ]
        },
        {
            "name" : "Mball.002",
            "scale" : [
                0.9718527793884277,
                1.0908050537109375,
                1.5854607820510864
            ],
            "translation" : [
                -1.6212420463562012,
                -7.54339075088501,
                -0.5695009231567383
            ]
        },
        {
            "name" : "Mball.003",
            "rotation" : [
                0,
                0.09755582362413406,
                0,
                0.9952300786972046
            ],
            "scale" : [
                1.1370545625686646,
                1.0559000968933105,
                1.6221470832824707
            ],
            "translation" : [
                -1.5113539695739746,
                15.857250213623047,
                -1.5353994369506836
            ]
        },
        {
            "name" : "Mball.004",
            "scale" : [
                1.129324197769165,
                1.2429957389831543,
                1.28217351436615
            ],
            "translation" : [
                0.32480478286743164,
                16.482175827026367,
                0.8829526901245117
            ]
        },
        {
            "name" : "Mball.005",
            "rotation" : [
                0,
                0.09755582362413406,
                0,
                0.9952300786972046
            ],
            "scale" : [
                1.1370545625686646,
                1.0559000968933105,
                1.6221470832824707
            ],
            "translation" : [
                2.8262100219726562,
                17.422283172607422,
                -2.592470169067383
            ]
        },
        {
            "name" : "Mball.006",
            "scale" : [
                1.1720517873764038,
                1.118120551109314,
                1.7346460819244385
            ],
            "translation" : [
                -3.318817138671875,
                -5.920086860656738,
                -4.617400646209717
            ]
        },
        {
            "name" : "Mball.007",
            "scale" : [
                1.1068305969238281,
                1.0559002161026,
                1.6381179094314575
            ],
            "translation" : [
                3.1210737228393555,
                15.628288269042969,
                -0.5010881423950195
            ]
        },
        {
            "name" : "Mball.008",
            "scale" : [
                1.1720517873764038,
                1.118120551109314,
                1.7346460819244385
            ],
            "translation" : [
                0.6843433380126953,
                -6.895696640014648,
                -3.647686004638672
            ]
        },
        {
            "name" : "Mball.009",
            "scale" : [
                1.1068305969238281,
                1.0559002161026,
                1.6381179094314575
            ],
            "translation" : [
                -0.028017520904541016,
                18.41725730895996,
                -2.0912609100341797
            ]
        },
        {
            "name" : "Mball.010",
            "scale" : [
                1.1720517873764038,
                1.118120551109314,
                1.7346460819244385
            ],
            "translation" : [
                1.6836910247802734,
                -7.324796199798584,
                -2.5612316131591797
            ]
        },
        {
            "name" : "Mball.011",
            "scale" : [
                1.3076590299606323,
                1.2474879026412964,
                1.9353461265563965
            ],
            "translation" : [
                -0.35626935958862305,
                -9.419675827026367,
                -5.6246747970581055
            ]
        },
        {
            "name" : "Mball.015",
            "scale" : [
                1.0526987314224243,
                1.1951775550842285,
                1.1951773166656494
            ],
            "translation" : [
                -1.5048246383666992,
                -4.5545759201049805,
                -0.9268932342529297
            ]
        },
        {
            "name" : "Mball.018",
            "scale" : [
                1.1720517873764038,
                1.118120551109314,
                1.7346460819244385
            ],
            "translation" : [
                0.6062583923339844,
                -5.015131950378418,
                -3.590386390686035
            ]
        },
        {
            "children" : [
                5,
                6,
                7,
                8,
                9,
                10,
                11,
                12,
                13,
                14,
                15,
                16,
                17
            ],
            "name" : "Mball.019",
            "rotation" : [
                0.17284399271011353,
                -0.3155883848667145,
                -0.46535202860832214,
                0.8086881041526794
            ],
            "scale" : [
                0.186866894364357,
                0.1716340333223343,
                0.1106320396065712
            ],
            "translation" : [
                -1.5384138822555542,
                2.3594486713409424,
                0.3499872088432312
            ]
        }
    ],
    "materials" : [
        {
            "doubleSided" : true,
            "name" : "5. Pink.001",
            "pbrMetallicRoughness" : {
                "baseColorFactor" : [
                    0.7953959107398987,
                    0.0018452084623277187,
                    0.6125767827033997,
                    1
                ],
                "metallicFactor" : 0,
                "roughnessFactor" : 0.5
            }
        }
    ],
    "meshes" : [
        {
            "name" : "Plane.004",
            "primitives" : [
                {
                    "attributes" : {
                        "POSITION" : 0,
                        "NORMAL" : 1,
                        "TEXCOORD_0" : 2
                    },
                    "indices" : 3,
                    "material" : 0
                }
            ]
        },
        {
            "name" : "Plane.007",
            "primitives" : [
                {
                    "attributes" : {
                        "POSITION" : 4,
                        "NORMAL" : 5,
                        "TEXCOORD_0" : 6
                    },
                    "indices" : 7,
                    "material" : 0
                }
            ]
        },
        {
            "name" : "Cube.004",
            "primitives" : [
                {
                    "attributes" : {
                        "POSITION" : 8,
                        "NORMAL" : 9,
                        "TEXCOORD_0" : 10
                    },
                    "indices" : 11,
                    "material" : 0
                }
            ]
        },
        {
            "name" : "Plane.011",
            "primitives" : [
                {
                    "attributes" : {
                        "POSITION" : 12,
                        "NORMAL" : 13,
                        "TEXCOORD_0" : 14
                    },
                    "indices" : 15
                }
            ]
        }
    ],
    "accessors" : [
        {
            "bufferView" : 0,
            "componentType" : 5126,
            "count" : 995,
            "max" : [
                1.6509863138198853,
                0.145650714635849,
                1
            ],
            "min" : [
                -1.6509863138198853,
                -0.3317105770111084,
                -1
            ],
            "type" : "VEC3"
        },
        {
            "bufferView" : 1,
            "componentType" : 5126,
            "count" : 995,
            "type" : "VEC3"
        },
        {
            "bufferView" : 2,
            "componentType" : 5126,
            "count" : 995,
            "type" : "VEC2"
        },
        {
            "bufferView" : 3,
            "componentType" : 5123,
            "count" : 2700,
            "type" : "SCALAR"
        },
        {
            "bufferView" : 4,
            "componentType" : 5126,
            "count" : 4222,
            "max" : [
                2.2768242359161377,
                0.7607588768005371,
                1.5135955810546875
            ],
            "min" : [
                -2.2768242359161377,
                -0.22088563442230225,
                -1.5135952234268188
            ],
            "type" : "VEC3"
        },
        {
            "bufferView" : 5,
            "componentType" : 5126,
            "count" : 4222,
            "type" : "VEC3"
        },
        {
            "bufferView" : 6,
            "componentType" : 5126,
            "count" : 4222,
            "type" : "VEC2"
        },
        {
            "bufferView" : 7,
            "componentType" : 5123,
            "count" : 24576,
            "type" : "SCALAR"
        },
        {
            "bufferView" : 8,
            "componentType" : 5126,
            "count" : 24,
            "max" : [
                1,
                4.655965805053711,
                1
            ],
            "min" : [
                -1,
                -4.655965805053711,
                -1
            ],
            "type" : "VEC3"
        },
        {
            "bufferView" : 9,
            "componentType" : 5126,
            "count" : 24,
            "type" : "VEC3"
        },
        {
            "bufferView" : 10,
            "componentType" : 5126,
            "count" : 24,
            "type" : "VEC2"
        },
        {
            "bufferView" : 11,
            "componentType" : 5123,
            "count" : 36,
            "type" : "SCALAR"
        },
        {
            "bufferView" : 12,
            "componentType" : 5126,
            "count" : 1098,
            "max" : [
                0.7620334029197693,
                0.09005889296531677,
                0.3117430806159973
            ],
            "min" : [
                -0.3019789457321167,
                -0.09684299677610397,
                -0.6852833032608032
            ],
            "type" : "VEC3"
        },
        {
            "bufferView" : 13,
            "componentType" : 5126,
            "count" : 1098,
            "type" : "VEC3"
        },
        {
            "bufferView" : 14,
            "componentType" : 5126,
            "count" : 1098,
            "type" : "VEC2"
        },
        {
            "bufferView" : 15,
            "componentType" : 5123,
            "count" : 4224,
            "type" : "SCALAR"
        }
    ],
    "bufferViews" : [
        {
            "buffer" : 0,
            "byteLength" : 11940,
            "byteOffset" : 0
        },
        {
            "buffer" : 0,
            "byteLength" : 11940,
            "byteOffset" : 11940
        },
        {
            "buffer" : 0,
            "byteLength" : 7960,
            "byteOffset" : 23880
        },
        {
            "buffer" : 0,
            "byteLength" : 5400,
            "byteOffset" : 31840
        },
        {
            "buffer" : 0,
            "byteLength" : 50664,
            "byteOffset" : 37240
        },
        {
            "buffer" : 0,
            "byteLength" : 50664,
            "byteOffset" : 87904
        },
        {
            "buffer" : 0,
            "byteLength" : 33776,
            "byteOffset" : 138568
        },
        {
            "buffer" : 0,
            "byteLength" : 49152,
            "byteOffset" : 172344
        },
        {
            "buffer" : 0,
            "byteLength" : 288,
            "byteOffset" : 221496
        },
        {
            "buffer" : 0,
            "byteLength" : 288,
            "byteOffset" : 221784
        },
        {
            "buffer" : 0,
            "byteLength" : 192,
            "byteOffset" : 222072
        },
        {
            "buffer" : 0,
            "byteLength" : 72,
            "byteOffset" : 222264
        },
        {
            "buffer" : 0,
            "byteLength" : 13176,
            "byteOffset" : 222336
        },
        {
            "buffer" : 0,
            "byteLength" : 13176,
            "byteOffset" : 235512
        },
        {
            "buffer" : 0,
            "byteLength" : 8784,
            "byteOffset" : 248688
        },
        {
            "buffer" : 0,
            "byteLength" : 8448,
            "byteOffset" : 257472
        }
    ],
    "buffers" : [
        {
            "byteLength" : 265920,
            "uri" : "data:application/octet-stream;base64,"
        }
    ]
}
