{
    "asset" : {
        "generator" : "Khronos glTF Blender I/O v1.7.33",
        "version" : "2.0"
    },
    "scene" : 0,
    "scenes" : [
        {
            "name" : "Scene",
            "nodes" : [
                0,
                1,
                2,
                3,
                4,
                5,
                6
            ]
        }
    ],
    "nodes" : [
        {
            "name" : "Empty",
            "scale" : [
                2.84298038482666,
                2.84298038482666,
                2.84298038482666
            ],
            "translation" : [
                0,
                2.4819908142089844,
                0
            ]
        },
        {
            "mesh" : 0,
            "name" : "Cube.005",
            "rotation" : [
                -0.20067816972732544,
                -0.3658480644226074,
                0.20187759399414062,
                0.8860750198364258
            ],
            "translation" : [
                -0.1608811616897583,
                1.9390166997909546,
                0.14608383178710938
            ]
        },
        {
            "mesh" : 1,
            "name" : "Cylinder.009",
            "rotation" : [
                -0.20067816972732544,
                -0.3658480644226074,
                0.20187759399414062,
                0.8860750198364258
            ],
            "translation" : [
                -0.6319780349731445,
                3.8105835914611816,
                -0.9781434535980225
            ]
        },
        {
            "mesh" : 2,
            "name" : "Cube.006",
            "rotation" : [
                -0.20067816972732544,
                -0.3658480644226074,
                0.20187759399414062,
                0.8860750198364258
            ],
            "translation" : [
                -0.14773273468017578,
                1.8867816925048828,
                0.17746096849441528
            ]
        },
        {
            "mesh" : 3,
            "name" : "Cube.007",
            "rotation" : [
                -0.20067816972732544,
                -0.3658480644226074,
                0.20187759399414062,
                0.8860750198364258
            ],
            "translation" : [
                -0.18004179000854492,
                2.0151381492614746,
                0.10035866498947144
            ]
        },
        {
            "mesh" : 4,
            "name" : "Cube.008",
            "rotation" : [
                -0.20067816972732544,
                -0.3658480644226074,
                0.20187759399414062,
                0.8860750198364258
            ],
            "translation" : [
                -0.1608811616897583,
                1.9390166997909546,
                0.14608383178710938
            ]
        },
        {
            "mesh" : 5,
            "name" : "Plane.047",
            "rotation" : [
                0.5800549983978271,
                -0.3130047023296356,
                0.3385852873325348,
                0.6715089082717896
            ],
            "translation" : [
                0.031340837478637695,
                1.040907382965088,
                1.8741812705993652
            ]
        }
    ],
    "materials" : [
        {
            "doubleSided" : true,
            "name" : "2.1 Biru.006",
            "pbrMetallicRoughness" : {
                "baseColorFactor" : [
                    0,
                    0.08021999895572662,
                    1,
                    1
                ],
                "metallicFactor" : 0.30000001192092896,
                "roughnessFactor" : 0.5
            }
        },
        {
            "doubleSided" : true,
            "name" : "7. puith.002",
            "pbrMetallicRoughness" : {
                "baseColorFactor" : [
                    0.800000011920929,
                    0.800000011920929,
                    0.800000011920929,
                    1
                ],
                "metallicFactor" : 0,
                "roughnessFactor" : 0.5
            }
        },
        {
            "doubleSided" : true,
            "name" : "2.1 Biru muda.008",
            "pbrMetallicRoughness" : {
                "baseColorFactor" : [
                    0.16434596478939056,
                    0.31350550055503845,
                    0.7874122262001038,
                    1
                ],
                "metallicFactor" : 0.20000000298023224,
                "roughnessFactor" : 0.5
            }
        }
    ],
    "meshes" : [
        {
            "name" : "Cube.033",
            "primitives" : [
                {
                    "attributes" : {
                        "POSITION" : 0,
                        "NORMAL" : 1,
                        "TEXCOORD_0" : 2
                    },
                    "indices" : 3,
                    "material" : 0
                }
            ]
        },
        {
            "name" : "Cylinder.033",
            "primitives" : [
                {
                    "attributes" : {
                        "POSITION" : 4,
                        "NORMAL" : 5,
                        "TEXCOORD_0" : 6
                    },
                    "indices" : 7,
                    "material" : 1
                }
            ]
        },
        {
            "name" : "Cube.034",
            "primitives" : [
                {
                    "attributes" : {
                        "POSITION" : 8,
                        "NORMAL" : 9,
                        "TEXCOORD_0" : 10
                    },
                    "indices" : 11,
                    "material" : 2
                }
            ]
        },
        {
            "name" : "Cube.035",
            "primitives" : [
                {
                    "attributes" : {
                        "POSITION" : 12,
                        "NORMAL" : 13,
                        "TEXCOORD_0" : 14
                    },
                    "indices" : 15,
                    "material" : 2
                }
            ]
        },
        {
            "name" : "Cube.036",
            "primitives" : [
                {
                    "attributes" : {
                        "POSITION" : 16,
                        "NORMAL" : 17,
                        "TEXCOORD_0" : 18
                    },
                    "indices" : 19,
                    "material" : 2
                }
            ]
        },
        {
            "name" : "Plane.042",
            "primitives" : [
                {
                    "attributes" : {
                        "POSITION" : 20,
                        "NORMAL" : 21,
                        "TEXCOORD_0" : 22
                    },
                    "indices" : 23,
                    "material" : 1
                }
            ]
        }
    ],
    "accessors" : [
        {
            "bufferView" : 0,
            "componentType" : 5126,
            "count" : 2424,
            "max" : [
                0.7719756960868835,
                2.06795072555542,
                0.4168049395084381
            ],
            "min" : [
                -0.7719756364822388,
                -2.2288918495178223,
                -0.41765549778938293
            ],
            "type" : "VEC3"
        },
        {
            "bufferView" : 1,
            "componentType" : 5126,
            "count" : 2424,
            "type" : "VEC3"
        },
        {
            "bufferView" : 2,
            "componentType" : 5126,
            "count" : 2424,
            "type" : "VEC2"
        },
        {
            "bufferView" : 3,
            "componentType" : 5123,
            "count" : 13056,
            "type" : "SCALAR"
        },
        {
            "bufferView" : 4,
            "componentType" : 5126,
            "count" : 6714,
            "max" : [
                0.382972776889801,
                0.2832319736480713,
                0.29234108328819275
            ],
            "min" : [
                -0.3829728364944458,
                -0.27335241436958313,
                -0.29234111309051514
            ],
            "type" : "VEC3"
        },
        {
            "bufferView" : 5,
            "componentType" : 5126,
            "count" : 6714,
            "type" : "VEC3"
        },
        {
            "bufferView" : 6,
            "componentType" : 5126,
            "count" : 6714,
            "type" : "VEC2"
        },
        {
            "bufferView" : 7,
            "componentType" : 5123,
            "count" : 33792,
            "type" : "SCALAR"
        },
        {
            "bufferView" : 8,
            "componentType" : 5126,
            "count" : 1818,
            "max" : [
                0.6640198230743408,
                2.158341884613037,
                0.45225754380226135
            ],
            "min" : [
                -0.664078414440155,
                1.3076047897338867,
                -0.4521041810512543
            ],
            "type" : "VEC3"
        },
        {
            "bufferView" : 9,
            "componentType" : 5126,
            "count" : 1818,
            "type" : "VEC3"
        },
        {
            "bufferView" : 10,
            "componentType" : 5126,
            "count" : 1818,
            "type" : "VEC2"
        },
        {
            "bufferView" : 11,
            "componentType" : 5123,
            "count" : 9984,
            "type" : "SCALAR"
        },
        {
            "bufferView" : 12,
            "componentType" : 5126,
            "count" : 1585,
            "max" : [
                0.7816445231437683,
                -1.4761594533920288,
                0.23082537949085236
            ],
            "min" : [
                -0.7816445231437683,
                -2.3847451210021973,
                -0.2308254987001419
            ],
            "type" : "VEC3"
        },
        {
            "bufferView" : 13,
            "componentType" : 5126,
            "count" : 1585,
            "type" : "VEC3"
        },
        {
            "bufferView" : 14,
            "componentType" : 5126,
            "count" : 1585,
            "type" : "VEC2"
        },
        {
            "bufferView" : 15,
            "componentType" : 5123,
            "count" : 8448,
            "type" : "SCALAR"
        },
        {
            "bufferView" : 16,
            "componentType" : 5126,
            "count" : 1575,
            "max" : [
                0.7100156545639038,
                0.40262216329574585,
                0.3908595144748688
            ],
            "min" : [
                -0.7100154161453247,
                -0.5999420881271362,
                -0.3908596336841583
            ],
            "type" : "VEC3"
        },
        {
            "bufferView" : 17,
            "componentType" : 5126,
            "count" : 1575,
            "type" : "VEC3"
        },
        {
            "bufferView" : 18,
            "componentType" : 5126,
            "count" : 1575,
            "type" : "VEC2"
        },
        {
            "bufferView" : 19,
            "componentType" : 5123,
            "count" : 8448,
            "type" : "SCALAR"
        },
        {
            "bufferView" : 20,
            "componentType" : 5126,
            "count" : 990,
            "max" : [
                0.4651079773902893,
                -0.04335526376962662,
                0.4470413625240326
            ],
            "min" : [
                -0.5229982137680054,
                -0.22231176495552063,
                -0.47566643357276917
            ],
            "type" : "VEC3"
        },
        {
            "bufferView" : 21,
            "componentType" : 5126,
            "count" : 990,
            "type" : "VEC3"
        },
        {
            "bufferView" : 22,
            "componentType" : 5126,
            "count" : 990,
            "type" : "VEC2"
        },
        {
            "bufferView" : 23,
            "componentType" : 5123,
            "count" : 3840,
            "type" : "SCALAR"
        }
    ],
    "bufferViews" : [
        {
            "buffer" : 0,
            "byteLength" : 29088,
            "byteOffset" : 0
        },
        {
            "buffer" : 0,
            "byteLength" : 29088,
            "byteOffset" : 29088
        },
        {
            "buffer" : 0,
            "byteLength" : 19392,
            "byteOffset" : 58176
        },
        {
            "buffer" : 0,
            "byteLength" : 26112,
            "byteOffset" : 77568
        },
        {
            "buffer" : 0,
            "byteLength" : 80568,
            "byteOffset" : 103680
        },
        {
            "buffer" : 0,
            "byteLength" : 80568,
            "byteOffset" : 184248
        },
        {
            "buffer" : 0,
            "byteLength" : 53712,
            "byteOffset" : 264816
        },
        {
            "buffer" : 0,
            "byteLength" : 67584,
            "byteOffset" : 318528
        },
        {
            "buffer" : 0,
            "byteLength" : 21816,
            "byteOffset" : 386112
        },
        {
            "buffer" : 0,
            "byteLength" : 21816,
            "byteOffset" : 407928
        },
        {
            "buffer" : 0,
            "byteLength" : 14544,
            "byteOffset" : 429744
        },
        {
            "buffer" : 0,
            "byteLength" : 19968,
            "byteOffset" : 444288
        },
        {
            "buffer" : 0,
            "byteLength" : 19020,
            "byteOffset" : 464256
        },
        {
            "buffer" : 0,
            "byteLength" : 19020,
            "byteOffset" : 483276
        },
        {
            "buffer" : 0,
            "byteLength" : 12680,
            "byteOffset" : 502296
        },
        {
            "buffer" : 0,
            "byteLength" : 16896,
            "byteOffset" : 514976
        },
        {
            "buffer" : 0,
            "byteLength" : 18900,
            "byteOffset" : 531872
        },
        {
            "buffer" : 0,
            "byteLength" : 18900,
            "byteOffset" : 550772
        },
        {
            "buffer" : 0,
            "byteLength" : 12600,
            "byteOffset" : 569672
        },
        {
            "buffer" : 0,
            "byteLength" : 16896,
            "byteOffset" : 582272
        },
        {
            "buffer" : 0,
            "byteLength" : 11880,
            "byteOffset" : 599168
        },
        {
            "buffer" : 0,
            "byteLength" : 11880,
            "byteOffset" : 611048
        },
        {
            "buffer" : 0,
            "byteLength" : 7920,
            "byteOffset" : 622928
        },
        {
            "buffer" : 0,
            "byteLength" : 7680,
            "byteOffset" : 630848
        }
    ],
    "buffers" : [
        {
            "byteLength" : 638528,
            "uri" : "data:application/octet-stream;base64,"
        }
    ]
}
