{
    "asset" : {
        "generator" : "Khronos glTF Blender I/O v1.7.33",
        "version" : "2.0"
    },
    "scene" : 0,
    "scenes" : [
        {
            "name" : "Scene",
            "nodes" : [
                0,
                1,
                2,
                3,
                4,
                5,
                6
            ]
        }
    ],
    "nodes" : [
        {
            "name" : "Empty",
            "scale" : [
                2.84298038482666,
                2.84298038482666,
                2.84298038482666
            ],
            "translation" : [
                0,
                2.4819908142089844,
                0
            ]
        },
        {
            "mesh" : 0,
            "name" : "Plane.014",
            "rotation" : [
                0.6532815098762512,
                -0.27059805393218994,
                0.27059805393218994,
                0.6532814502716064
            ],
            "scale" : [
                1.0513163805007935,
                1.0513163805007935,
                1.8115078210830688
            ],
            "translation" : [
                -0.01544133573770523,
                4.8075642585754395,
                -0.030773688107728958
            ]
        },
        {
            "mesh" : 1,
            "name" : "Circle.008",
            "rotation" : [
                0,
                -0.3826834559440613,
                0,
                0.9238795042037964
            ],
            "scale" : [
                1.051316499710083,
                1.051316499710083,
                1.051316499710083
            ],
            "translation" : [
                -0.01544133573770523,
                1.6964908838272095,
                -0.030773688107728958
            ]
        },
        {
            "mesh" : 2,
            "name" : "Plane.017",
            "rotation" : [
                0.6532815098762512,
                -0.27059805393218994,
                0.27059805393218994,
                0.6532814502716064
            ],
            "scale" : [
                1.051316499710083,
                1.051316499710083,
                1.051316499710083
            ],
            "translation" : [
                -0.028326574712991714,
                0.6182589530944824,
                -0.017888449132442474
            ]
        },
        {
            "mesh" : 3,
            "name" : "Plane.018",
            "rotation" : [
                0.6532815098762512,
                -0.27059805393218994,
                0.27059805393218994,
                0.6532814502716064
            ],
            "scale" : [
                1.0513163805007935,
                1.0513163805007935,
                1.8115078210830688
            ],
            "translation" : [
                -0.01544133573770523,
                5.837230682373047,
                -0.030773688107728958
            ]
        },
        {
            "mesh" : 4,
            "name" : "Plane.048",
            "rotation" : [
                0.6532815098762512,
                -0.27059805393218994,
                0.27059805393218994,
                0.6532814502716064
            ],
            "scale" : [
                1.1988886594772339,
                1.1988886594772339,
                1.1988886594772339
            ],
            "translation" : [
                -1.5371956825256348,
                1.3959462642669678,
                -0.5410714745521545
            ]
        },
        {
            "mesh" : 5,
            "name" : "Cube.015",
            "rotation" : [
                0,
                -0.3826834559440613,
                0,
                0.9238795042037964
            ],
            "scale" : [
                1.04917311668396,
                1.04917311668396,
                1.04917311668396
            ],
            "translation" : [
                0.006241282448172569,
                0.44400444626808167,
                -0.0434851348400116
            ]
        }
    ],
    "materials" : [
        {
            "doubleSided" : true,
            "name" : "4. Orange.006",
            "pbrMetallicRoughness" : {
                "baseColorFactor" : [
                    0.5173037648200989,
                    0.15073460340499878,
                    0,
                    1
                ],
                "metallicFactor" : 0.30000001192092896,
                "roughnessFactor" : 0.5
            }
        },
        {
            "doubleSided" : true,
            "name" : "2. Yellow.008",
            "pbrMetallicRoughness" : {
                "baseColorFactor" : [
                    0.8009423613548279,
                    0.4598791003227234,
                    0,
                    1
                ],
                "metallicFactor" : 0.10000000149011612,
                "roughnessFactor" : 0.5
            }
        },
        {
            "doubleSided" : true,
            "name" : "6. Baja.002",
            "pbrMetallicRoughness" : {
                "baseColorFactor" : [
                    0.04224558547139168,
                    0.04224558547139168,
                    0.04224558547139168,
                    1
                ],
                "metallicFactor" : 0.30000001192092896,
                "roughnessFactor" : 0.5
            }
        },
        {
            "doubleSided" : true,
            "emissiveFactor" : [
                0.19433604180812836,
                0.19433604180812836,
                0.19433604180812836
            ],
            "name" : "Material.009",
            "pbrMetallicRoughness" : {
                "baseColorFactor" : [
                    0.800000011920929,
                    0.800000011920929,
                    0.800000011920929,
                    1
                ],
                "metallicFactor" : 0,
                "roughnessFactor" : 0.5
            }
        },
        {
            "doubleSided" : true,
            "name" : "2.1 Biru.007",
            "pbrMetallicRoughness" : {
                "baseColorFactor" : [
                    0,
                    0.08021999895572662,
                    1,
                    1
                ],
                "metallicFactor" : 0.30000001192092896,
                "roughnessFactor" : 0.5
            }
        }
    ],
    "meshes" : [
        {
            "name" : "Plane.053",
            "primitives" : [
                {
                    "attributes" : {
                        "POSITION" : 0,
                        "NORMAL" : 1
                    },
                    "indices" : 2,
                    "material" : 0
                }
            ]
        },
        {
            "name" : "Circle.029",
            "primitives" : [
                {
                    "attributes" : {
                        "POSITION" : 3,
                        "NORMAL" : 4
                    },
                    "indices" : 5,
                    "material" : 1
                }
            ]
        },
        {
            "name" : "Plane.055",
            "primitives" : [
                {
                    "attributes" : {
                        "POSITION" : 6,
                        "NORMAL" : 7,
                        "TEXCOORD_0" : 8
                    },
                    "indices" : 9,
                    "material" : 2
                }
            ]
        },
        {
            "name" : "Plane.058",
            "primitives" : [
                {
                    "attributes" : {
                        "POSITION" : 10,
                        "NORMAL" : 11
                    },
                    "indices" : 12,
                    "material" : 0
                }
            ]
        },
        {
            "name" : "Plane.059",
            "primitives" : [
                {
                    "attributes" : {
                        "POSITION" : 13,
                        "NORMAL" : 14,
                        "TEXCOORD_0" : 15
                    },
                    "indices" : 16,
                    "material" : 3
                }
            ]
        },
        {
            "name" : "Cube.039",
            "primitives" : [
                {
                    "attributes" : {
                        "POSITION" : 17,
                        "NORMAL" : 18,
                        "TEXCOORD_0" : 19
                    },
                    "indices" : 20,
                    "material" : 4
                }
            ]
        }
    ],
    "accessors" : [
        {
            "bufferView" : 0,
            "componentType" : 5126,
            "count" : 2178,
            "max" : [
                0.23138593137264252,
                0.23138609528541565,
                2.150336265563965
            ],
            "min" : [
                -0.23138593137264252,
                -0.23138588666915894,
                0.7242352962493896
            ],
            "type" : "VEC3"
        },
        {
            "bufferView" : 1,
            "componentType" : 5126,
            "count" : 2178,
            "type" : "VEC3"
        },
        {
            "bufferView" : 2,
            "componentType" : 5123,
            "count" : 13056,
            "type" : "SCALAR"
        },
        {
            "bufferView" : 3,
            "componentType" : 5126,
            "count" : 4096,
            "max" : [
                0.4497857689857483,
                0.1351640373468399,
                0.4497857987880707
            ],
            "min" : [
                -0.4497857987880707,
                -0.1351645290851593,
                -0.4497857987880707
            ],
            "type" : "VEC3"
        },
        {
            "bufferView" : 4,
            "componentType" : 5126,
            "count" : 4096,
            "type" : "VEC3"
        },
        {
            "bufferView" : 5,
            "componentType" : 5123,
            "count" : 24576,
            "type" : "SCALAR"
        },
        {
            "bufferView" : 6,
            "componentType" : 5126,
            "count" : 2557,
            "max" : [
                1.852584719657898,
                0.04631369560956955,
                0.5341983437538147
            ],
            "min" : [
                -1.852584719657898,
                -0.14631371200084686,
                -0.5306519865989685
            ],
            "type" : "VEC3"
        },
        {
            "bufferView" : 7,
            "componentType" : 5126,
            "count" : 2557,
            "type" : "VEC3"
        },
        {
            "bufferView" : 8,
            "componentType" : 5126,
            "count" : 2557,
            "type" : "VEC2"
        },
        {
            "bufferView" : 9,
            "componentType" : 5123,
            "count" : 11904,
            "type" : "SCALAR"
        },
        {
            "bufferView" : 10,
            "componentType" : 5126,
            "count" : 1154,
            "max" : [
                0.33538106083869934,
                0.33538129925727844,
                1.7717933654785156
            ],
            "min" : [
                -0.33538106083869934,
                -0.3353811204433441,
                0.6834181547164917
            ],
            "type" : "VEC3"
        },
        {
            "bufferView" : 11,
            "componentType" : 5126,
            "count" : 1154,
            "type" : "VEC3"
        },
        {
            "bufferView" : 12,
            "componentType" : 5123,
            "count" : 6912,
            "type" : "SCALAR"
        },
        {
            "bufferView" : 13,
            "componentType" : 5126,
            "count" : 1839,
            "max" : [
                0.4212014675140381,
                -0.0729479268193245,
                0.4536626636981964
            ],
            "min" : [
                -0.5267590880393982,
                -0.2153327763080597,
                -0.43462011218070984
            ],
            "type" : "VEC3"
        },
        {
            "bufferView" : 14,
            "componentType" : 5126,
            "count" : 1839,
            "type" : "VEC3"
        },
        {
            "bufferView" : 15,
            "componentType" : 5126,
            "count" : 1839,
            "type" : "VEC2"
        },
        {
            "bufferView" : 16,
            "componentType" : 5123,
            "count" : 7092,
            "type" : "SCALAR"
        },
        {
            "bufferView" : 17,
            "componentType" : 5126,
            "count" : 9596,
            "max" : [
                1.7548977136611938,
                1.0872093439102173,
                0.33092403411865234
            ],
            "min" : [
                -1.7548855543136597,
                0.1629543900489807,
                -0.33092400431632996
            ],
            "type" : "VEC3"
        },
        {
            "bufferView" : 18,
            "componentType" : 5126,
            "count" : 9596,
            "type" : "VEC3"
        },
        {
            "bufferView" : 19,
            "componentType" : 5126,
            "count" : 9596,
            "type" : "VEC2"
        },
        {
            "bufferView" : 20,
            "componentType" : 5123,
            "count" : 49536,
            "type" : "SCALAR"
        }
    ],
    "bufferViews" : [
        {
            "buffer" : 0,
            "byteLength" : 26136,
            "byteOffset" : 0
        },
        {
            "buffer" : 0,
            "byteLength" : 26136,
            "byteOffset" : 26136
        },
        {
            "buffer" : 0,
            "byteLength" : 26112,
            "byteOffset" : 52272
        },
        {
            "buffer" : 0,
            "byteLength" : 49152,
            "byteOffset" : 78384
        },
        {
            "buffer" : 0,
            "byteLength" : 49152,
            "byteOffset" : 127536
        },
        {
            "buffer" : 0,
            "byteLength" : 49152,
            "byteOffset" : 176688
        },
        {
            "buffer" : 0,
            "byteLength" : 30684,
            "byteOffset" : 225840
        },
        {
            "buffer" : 0,
            "byteLength" : 30684,
            "byteOffset" : 256524
        },
        {
            "buffer" : 0,
            "byteLength" : 20456,
            "byteOffset" : 287208
        },
        {
            "buffer" : 0,
            "byteLength" : 23808,
            "byteOffset" : 307664
        },
        {
            "buffer" : 0,
            "byteLength" : 13848,
            "byteOffset" : 331472
        },
        {
            "buffer" : 0,
            "byteLength" : 13848,
            "byteOffset" : 345320
        },
        {
            "buffer" : 0,
            "byteLength" : 13824,
            "byteOffset" : 359168
        },
        {
            "buffer" : 0,
            "byteLength" : 22068,
            "byteOffset" : 372992
        },
        {
            "buffer" : 0,
            "byteLength" : 22068,
            "byteOffset" : 395060
        },
        {
            "buffer" : 0,
            "byteLength" : 14712,
            "byteOffset" : 417128
        },
        {
            "buffer" : 0,
            "byteLength" : 14184,
            "byteOffset" : 431840
        },
        {
            "buffer" : 0,
            "byteLength" : 115152,
            "byteOffset" : 446024
        },
        {
            "buffer" : 0,
            "byteLength" : 115152,
            "byteOffset" : 561176
        },
        {
            "buffer" : 0,
            "byteLength" : 76768,
            "byteOffset" : 676328
        },
        {
            "buffer" : 0,
            "byteLength" : 99072,
            "byteOffset" : 753096
        }
    ],
    "buffers" : [
        {
            "byteLength" : 852168,
            "uri" : "data:application/octet-stream;base64,"
        }
    ]
}
