{
    "asset" : {
        "generator" : "Khronos glTF Blender I/O v1.7.33",
        "version" : "2.0"
    },
    "scene" : 0,
    "scenes" : [
        {
            "name" : "Scene",
            "nodes" : [
                0,
                1,
                2,
                3
            ]
        }
    ],
    "nodes" : [
        {
            "name" : "Empty",
            "scale" : [
                2.84298038482666,
                2.84298038482666,
                2.84298038482666
            ],
            "translation" : [
                0,
                2.4819908142089844,
                0
            ]
        },
        {
            "mesh" : 0,
            "name" : "Plane.071",
            "rotation" : [
                0.3205573558807373,
                0.21900150179862976,
                0.6302722096443176,
                0.6723380088806152
            ],
            "scale" : [
                1.293122410774231,
                1.293122410774231,
                1.293122410774231
            ],
            "translation" : [
                -0.8013994097709656,
                2.861011266708374,
                -0.8170602917671204
            ]
        },
        {
            "mesh" : 1,
            "name" : "Plane.025",
            "rotation" : [
                0.6888693571090698,
                -0.5999293327331543,
                -0.15955884754657745,
                0.3742789924144745
            ],
            "scale" : [
                -1.293122410774231,
                1.293122410774231,
                1.293122410774231
            ],
            "translation" : [
                1.165611982345581,
                2.4571359157562256,
                0.2566392421722412
            ]
        },
        {
            "mesh" : 2,
            "name" : "Plane.050",
            "rotation" : [
                0.6532815098762512,
                -0.27059805393218994,
                0.27059805393218994,
                0.6532814502716064
            ],
            "translation" : [
                0.10066384077072144,
                1.4748064279556274,
                0.8161880373954773
            ]
        }
    ],
    "materials" : [
        {
            "doubleSided" : true,
            "name" : "2.1 Biru.009",
            "pbrMetallicRoughness" : {
                "baseColorFactor" : [
                    0,
                    0.08021999895572662,
                    1,
                    1
                ],
                "metallicFactor" : 0.30000001192092896,
                "roughnessFactor" : 0.5
            }
        }
    ],
    "meshes" : [
        {
            "name" : "Plane.064",
            "primitives" : [
                {
                    "attributes" : {
                        "POSITION" : 0,
                        "NORMAL" : 1
                    },
                    "indices" : 2,
                    "material" : 0
                }
            ]
        },
        {
            "name" : "Plane.065",
            "primitives" : [
                {
                    "attributes" : {
                        "POSITION" : 3,
                        "NORMAL" : 4
                    },
                    "indices" : 2,
                    "material" : 0
                }
            ]
        },
        {
            "name" : "Plane.068",
            "primitives" : [
                {
                    "attributes" : {
                        "POSITION" : 5,
                        "NORMAL" : 6,
                        "TEXCOORD_0" : 7
                    },
                    "indices" : 8
                }
            ]
        }
    ],
    "accessors" : [
        {
            "bufferView" : 0,
            "componentType" : 5126,
            "count" : 42050,
            "max" : [
                1.2279621362686157,
                0.5364184379577637,
                1.0828123092651367
            ],
            "min" : [
                -1.5699418783187866,
                -0.5166859030723572,
                -1.0598942041397095
            ],
            "type" : "VEC3"
        },
        {
            "bufferView" : 1,
            "componentType" : 5126,
            "count" : 42050,
            "type" : "VEC3"
        },
        {
            "bufferView" : 2,
            "componentType" : 5123,
            "count" : 252288,
            "type" : "SCALAR"
        },
        {
            "bufferView" : 3,
            "componentType" : 5126,
            "count" : 42050,
            "max" : [
                1.2279621362686157,
                0.5364184379577637,
                1.0828123092651367
            ],
            "min" : [
                -1.5699418783187866,
                -0.5166859030723572,
                -1.0508500337600708
            ],
            "type" : "VEC3"
        },
        {
            "bufferView" : 4,
            "componentType" : 5126,
            "count" : 42050,
            "type" : "VEC3"
        },
        {
            "bufferView" : 5,
            "componentType" : 5126,
            "count" : 988,
            "max" : [
                0.41546592116355896,
                -0.05202970653772354,
                0.41724294424057007
            ],
            "min" : [
                -0.490339457988739,
                -0.2153327763080597,
                -0.4288846254348755
            ],
            "type" : "VEC3"
        },
        {
            "bufferView" : 6,
            "componentType" : 5126,
            "count" : 988,
            "type" : "VEC3"
        },
        {
            "bufferView" : 7,
            "componentType" : 5126,
            "count" : 988,
            "type" : "VEC2"
        },
        {
            "bufferView" : 8,
            "componentType" : 5123,
            "count" : 3840,
            "type" : "SCALAR"
        }
    ],
    "bufferViews" : [
        {
            "buffer" : 0,
            "byteLength" : 504600,
            "byteOffset" : 0
        },
        {
            "buffer" : 0,
            "byteLength" : 504600,
            "byteOffset" : 504600
        },
        {
            "buffer" : 0,
            "byteLength" : 504576,
            "byteOffset" : 1009200
        },
        {
            "buffer" : 0,
            "byteLength" : 504600,
            "byteOffset" : 1513776
        },
        {
            "buffer" : 0,
            "byteLength" : 504600,
            "byteOffset" : 2018376
        },
        {
            "buffer" : 0,
            "byteLength" : 11856,
            "byteOffset" : 2522976
        },
        {
            "buffer" : 0,
            "byteLength" : 11856,
            "byteOffset" : 2534832
        },
        {
            "buffer" : 0,
            "byteLength" : 7904,
            "byteOffset" : 2546688
        },
        {
            "buffer" : 0,
            "byteLength" : 7680,
            "byteOffset" : 2554592
        }
    ],
    "buffers" : [
        {
            "byteLength" : 2562272,
            "uri" : "data:application/octet-stream;base64,"
        }
    ]
}
