{
    "asset" : {
        "generator" : "Khronos glTF Blender I/O v1.7.33",
        "version" : "2.0"
    },
    "scene" : 0,
    "scenes" : [
        {
            "name" : "Scene",
            "nodes" : [
                0,
                1,
                2,
                3,
                4,
                5,
                6,
                7,
                8,
                9
            ]
        }
    ],
    "nodes" : [
        {
            "name" : "Empty",
            "scale" : [
                2.84298038482666,
                2.84298038482666,
                2.84298038482666
            ],
            "translation" : [
                0,
                2.4819908142089844,
                0
            ]
        },
        {
            "mesh" : 0,
            "name" : "Plane.021",
            "rotation" : [
                -0.06711453944444656,
                -0.3767522871494293,
                0.16202881932258606,
                0.9095603227615356
            ],
            "scale" : [
                0.8946422338485718,
                0.9971904754638672,
                0.8946422338485718
            ],
            "translation" : [
                -0.1681663691997528,
                1.7401562929153442,
                0.06359392404556274
            ]
        },
        {
            "mesh" : 1,
            "name" : "Circle.010",
            "rotation" : [
                -0.06711453944444656,
                -0.3767522871494293,
                0.16202881932258606,
                0.9095603227615356
            ],
            "scale" : [
                0.9825930595397949,
                0.9825930595397949,
                0.9825930595397949
            ],
            "translation" : [
                -0.30737820267677307,
                2.2848165035247803,
                -0.0784912258386612
            ]
        },
        {
            "mesh" : 2,
            "name" : "Plane.020",
            "rotation" : [
                0.37675216794013977,
                -0.06711447238922119,
                -0.9095603823661804,
                0.16202899813652039
            ],
            "scale" : [
                0.9825930595397949,
                0.9825930595397949,
                0.9825930595397949
            ],
            "translation" : [
                -0.26816651225090027,
                2.134108781814575,
                -0.0392795205116272
            ]
        },
        {
            "mesh" : 3,
            "name" : "Plane.039",
            "rotation" : [
                -0.06711453944444656,
                -0.3767522871494293,
                0.16202881932258606,
                0.9095603227615356
            ],
            "scale" : [
                0.8946422338485718,
                0.9971904754638672,
                0.8946422338485718
            ],
            "translation" : [
                -0.1681663691997528,
                1.7401562929153442,
                0.06359392404556274
            ]
        },
        {
            "mesh" : 4,
            "name" : "Sphere.003",
            "rotation" : [
                -0.12401150912046432,
                0,
                0.12401147186756134,
                0.9845010638237
            ],
            "scale" : [
                0.8946423530578613,
                0.9971904754638672,
                0.8946423530578613
            ],
            "translation" : [
                -0.1681663691997528,
                1.7401562929153442,
                0.06359392404556274
            ]
        },
        {
            "mesh" : 5,
            "name" : "Plane.022",
            "rotation" : [
                -0.06711453944444656,
                -0.3767522871494293,
                0.16202881932258606,
                0.9095603227615356
            ],
            "scale" : [
                0.8946422338485718,
                0.9971904754638672,
                0.8946422338485718
            ],
            "translation" : [
                -0.1681663691997528,
                1.7401562929153442,
                0.06359392404556274
            ]
        },
        {
            "mesh" : 6,
            "name" : "Plane.023",
            "rotation" : [
                -0.06711453944444656,
                -0.3767522871494293,
                0.16202881932258606,
                0.9095603227615356
            ],
            "scale" : [
                0.8946422338485718,
                0.9971904754638672,
                0.8946422338485718
            ],
            "translation" : [
                -0.1681663691997528,
                1.7401562929153442,
                0.06359392404556274
            ]
        },
        {
            "mesh" : 7,
            "name" : "Plane.026",
            "rotation" : [
                -0.06711453944444656,
                -0.3767522871494293,
                0.16202881932258606,
                0.9095603227615356
            ],
            "scale" : [
                0.8946422338485718,
                0.9971904754638672,
                0.8946422338485718
            ],
            "translation" : [
                -0.1681663691997528,
                1.7401562929153442,
                0.06359392404556274
            ]
        },
        {
            "mesh" : 8,
            "name" : "Plane.051",
            "rotation" : [
                0.6532815098762512,
                -0.27059805393218994,
                0.27059805393218994,
                0.6532814502716064
            ],
            "translation" : [
                -1.6575374603271484,
                0.7448033690452576,
                0.840231716632843
            ]
        }
    ],
    "materials" : [
        {
            "doubleSided" : true,
            "name" : "2.1 Biru muda.011",
            "pbrMetallicRoughness" : {
                "baseColorFactor" : [
                    0.16434596478939056,
                    0.31350550055503845,
                    0.7874122262001038,
                    1
                ],
                "metallicFactor" : 0.20000000298023224,
                "roughnessFactor" : 0.5
            }
        },
        {
            "doubleSided" : true,
            "name" : "2. Yellow.009",
            "pbrMetallicRoughness" : {
                "baseColorFactor" : [
                    0.8009423613548279,
                    0.4598791003227234,
                    0,
                    1
                ],
                "metallicFactor" : 0.10000000149011612,
                "roughnessFactor" : 0.5
            }
        },
        {
            "doubleSided" : true,
            "name" : "Clay.002",
            "pbrMetallicRoughness" : {
                "baseColorFactor" : [
                    0.4043523669242859,
                    0.10528095811605453,
                    0.016523953527212143,
                    1
                ],
                "metallicFactor" : 0,
                "roughnessFactor" : 0.5
            }
        }
    ],
    "meshes" : [
        {
            "name" : "Plane.070",
            "primitives" : [
                {
                    "attributes" : {
                        "POSITION" : 0,
                        "NORMAL" : 1
                    },
                    "indices" : 2,
                    "material" : 0
                }
            ]
        },
        {
            "name" : "Circle.030",
            "primitives" : [
                {
                    "attributes" : {
                        "POSITION" : 3,
                        "NORMAL" : 4
                    },
                    "indices" : 5,
                    "material" : 1
                }
            ]
        },
        {
            "name" : "Plane.073",
            "primitives" : [
                {
                    "attributes" : {
                        "POSITION" : 6,
                        "NORMAL" : 7
                    },
                    "indices" : 8,
                    "material" : 2
                }
            ]
        },
        {
            "name" : "Plane.074",
            "primitives" : [
                {
                    "attributes" : {
                        "POSITION" : 9,
                        "NORMAL" : 10
                    },
                    "indices" : 2,
                    "material" : 0
                }
            ]
        },
        {
            "name" : "Sphere.008",
            "primitives" : [
                {
                    "attributes" : {
                        "POSITION" : 11,
                        "NORMAL" : 12,
                        "TEXCOORD_0" : 13
                    },
                    "indices" : 14,
                    "material" : 0
                }
            ]
        },
        {
            "name" : "Plane.075",
            "primitives" : [
                {
                    "attributes" : {
                        "POSITION" : 15,
                        "NORMAL" : 16
                    },
                    "indices" : 2,
                    "material" : 0
                }
            ]
        },
        {
            "name" : "Plane.076",
            "primitives" : [
                {
                    "attributes" : {
                        "POSITION" : 17,
                        "NORMAL" : 18
                    },
                    "indices" : 2,
                    "material" : 0
                }
            ]
        },
        {
            "name" : "Plane.085",
            "primitives" : [
                {
                    "attributes" : {
                        "POSITION" : 19,
                        "NORMAL" : 20
                    },
                    "indices" : 21,
                    "material" : 0
                }
            ]
        },
        {
            "name" : "Plane.089",
            "primitives" : [
                {
                    "attributes" : {
                        "POSITION" : 22,
                        "NORMAL" : 23,
                        "TEXCOORD_0" : 24
                    },
                    "indices" : 25
                }
            ]
        }
    ],
    "accessors" : [
        {
            "bufferView" : 0,
            "componentType" : 5126,
            "count" : 7184,
            "max" : [
                1.4692283868789673,
                0.0785481408238411,
                1.4692274332046509
            ],
            "min" : [
                -1.4692268371582031,
                -0.4650092124938965,
                -1.4692261219024658
            ],
            "type" : "VEC3"
        },
        {
            "bufferView" : 1,
            "componentType" : 5126,
            "count" : 7184,
            "type" : "VEC3"
        },
        {
            "bufferView" : 2,
            "componentType" : 5123,
            "count" : 43008,
            "type" : "SCALAR"
        },
        {
            "bufferView" : 3,
            "componentType" : 5126,
            "count" : 4096,
            "max" : [
                0.49145668745040894,
                0.1525937169790268,
                0.49145662784576416
            ],
            "min" : [
                -0.49145662784576416,
                -0.1525934934616089,
                -0.49145668745040894
            ],
            "type" : "VEC3"
        },
        {
            "bufferView" : 4,
            "componentType" : 5126,
            "count" : 4096,
            "type" : "VEC3"
        },
        {
            "bufferView" : 5,
            "componentType" : 5123,
            "count" : 24576,
            "type" : "SCALAR"
        },
        {
            "bufferView" : 6,
            "componentType" : 5126,
            "count" : 2178,
            "max" : [
                0.2593320906162262,
                0.46413809061050415,
                0.2593320608139038
            ],
            "min" : [
                -0.25933223962783813,
                -2.85309100151062,
                -0.25933223962783813
            ],
            "type" : "VEC3"
        },
        {
            "bufferView" : 7,
            "componentType" : 5126,
            "count" : 2178,
            "type" : "VEC3"
        },
        {
            "bufferView" : 8,
            "componentType" : 5123,
            "count" : 13056,
            "type" : "SCALAR"
        },
        {
            "bufferView" : 9,
            "componentType" : 5126,
            "count" : 7184,
            "max" : [
                1.4256247282028198,
                0.48585036396980286,
                1.4256240129470825
            ],
            "min" : [
                -1.4256235361099243,
                -0.05852372944355011,
                -1.425622820854187
            ],
            "type" : "VEC3"
        },
        {
            "bufferView" : 10,
            "componentType" : 5126,
            "count" : 7184,
            "type" : "VEC3"
        },
        {
            "bufferView" : 11,
            "componentType" : 5126,
            "count" : 559,
            "max" : [
                0.5631778836250305,
                0.5631776452064514,
                0.5631776452064514
            ],
            "min" : [
                -0.5631773471832275,
                -0.5631784200668335,
                -0.5631773471832275
            ],
            "type" : "VEC3"
        },
        {
            "bufferView" : 12,
            "componentType" : 5126,
            "count" : 559,
            "type" : "VEC3"
        },
        {
            "bufferView" : 13,
            "componentType" : 5126,
            "count" : 559,
            "type" : "VEC2"
        },
        {
            "bufferView" : 14,
            "componentType" : 5123,
            "count" : 2880,
            "type" : "SCALAR"
        },
        {
            "bufferView" : 15,
            "componentType" : 5126,
            "count" : 7184,
            "max" : [
                1.5372272729873657,
                -0.3121934235095978,
                1.5372265577316284
            ],
            "min" : [
                -1.5372258424758911,
                -0.8551549315452576,
                -1.5372251272201538
            ],
            "type" : "VEC3"
        },
        {
            "bufferView" : 16,
            "componentType" : 5126,
            "count" : 7184,
            "type" : "VEC3"
        },
        {
            "bufferView" : 17,
            "componentType" : 5126,
            "count" : 7184,
            "max" : [
                1.3119641542434692,
                -0.5940083265304565,
                1.3119632005691528
            ],
            "min" : [
                -1.3119624853134155,
                -1.2610348463058472,
                -1.3119617700576782
            ],
            "type" : "VEC3"
        },
        {
            "bufferView" : 18,
            "componentType" : 5126,
            "count" : 7184,
            "type" : "VEC3"
        },
        {
            "bufferView" : 19,
            "componentType" : 5126,
            "count" : 5136,
            "max" : [
                1.1493728160858154,
                -1.0142260789871216,
                1.1493722200393677
            ],
            "min" : [
                -1.14937162399292,
                -1.5783798694610596,
                -1.1493710279464722
            ],
            "type" : "VEC3"
        },
        {
            "bufferView" : 20,
            "componentType" : 5126,
            "count" : 5136,
            "type" : "VEC3"
        },
        {
            "bufferView" : 21,
            "componentType" : 5123,
            "count" : 30720,
            "type" : "SCALAR"
        },
        {
            "bufferView" : 22,
            "componentType" : 5126,
            "count" : 2592,
            "max" : [
                0.44059064984321594,
                -0.04746831953525543,
                0.43193310499191284
            ],
            "min" : [
                -0.506533682346344,
                -0.2190025895833969,
                -0.45250529050827026
            ],
            "type" : "VEC3"
        },
        {
            "bufferView" : 23,
            "componentType" : 5126,
            "count" : 2592,
            "type" : "VEC3"
        },
        {
            "bufferView" : 24,
            "componentType" : 5126,
            "count" : 2592,
            "type" : "VEC2"
        },
        {
            "bufferView" : 25,
            "componentType" : 5123,
            "count" : 3840,
            "type" : "SCALAR"
        }
    ],
    "bufferViews" : [
        {
            "buffer" : 0,
            "byteLength" : 86208,
            "byteOffset" : 0
        },
        {
            "buffer" : 0,
            "byteLength" : 86208,
            "byteOffset" : 86208
        },
        {
            "buffer" : 0,
            "byteLength" : 86016,
            "byteOffset" : 172416
        },
        {
            "buffer" : 0,
            "byteLength" : 49152,
            "byteOffset" : 258432
        },
        {
            "buffer" : 0,
            "byteLength" : 49152,
            "byteOffset" : 307584
        },
        {
            "buffer" : 0,
            "byteLength" : 49152,
            "byteOffset" : 356736
        },
        {
            "buffer" : 0,
            "byteLength" : 26136,
            "byteOffset" : 405888
        },
        {
            "buffer" : 0,
            "byteLength" : 26136,
            "byteOffset" : 432024
        },
        {
            "buffer" : 0,
            "byteLength" : 26112,
            "byteOffset" : 458160
        },
        {
            "buffer" : 0,
            "byteLength" : 86208,
            "byteOffset" : 484272
        },
        {
            "buffer" : 0,
            "byteLength" : 86208,
            "byteOffset" : 570480
        },
        {
            "buffer" : 0,
            "byteLength" : 6708,
            "byteOffset" : 656688
        },
        {
            "buffer" : 0,
            "byteLength" : 6708,
            "byteOffset" : 663396
        },
        {
            "buffer" : 0,
            "byteLength" : 4472,
            "byteOffset" : 670104
        },
        {
            "buffer" : 0,
            "byteLength" : 5760,
            "byteOffset" : 674576
        },
        {
            "buffer" : 0,
            "byteLength" : 86208,
            "byteOffset" : 680336
        },
        {
            "buffer" : 0,
            "byteLength" : 86208,
            "byteOffset" : 766544
        },
        {
            "buffer" : 0,
            "byteLength" : 86208,
            "byteOffset" : 852752
        },
        {
            "buffer" : 0,
            "byteLength" : 86208,
            "byteOffset" : 938960
        },
        {
            "buffer" : 0,
            "byteLength" : 61632,
            "byteOffset" : 1025168
        },
        {
            "buffer" : 0,
            "byteLength" : 61632,
            "byteOffset" : 1086800
        },
        {
            "buffer" : 0,
            "byteLength" : 61440,
            "byteOffset" : 1148432
        },
        {
            "buffer" : 0,
            "byteLength" : 31104,
            "byteOffset" : 1209872
        },
        {
            "buffer" : 0,
            "byteLength" : 31104,
            "byteOffset" : 1240976
        },
        {
            "buffer" : 0,
            "byteLength" : 20736,
            "byteOffset" : 1272080
        },
        {
            "buffer" : 0,
            "byteLength" : 7680,
            "byteOffset" : 1292816
        }
    ],
    "buffers" : [
        {
            "byteLength" : 1300496,
            "uri" : "data:application/octet-stream;base64,"
        }
    ]
}
