{
    "asset" : {
        "generator" : "Khronos glTF Blender I/O v1.7.33",
        "version" : "2.0"
    },
    "scene" : 0,
    "scenes" : [
        {
            "name" : "Scene",
            "nodes" : [
                0,
                5
            ]
        }
    ],
    "nodes" : [
        {
            "name" : "Empty",
            "scale" : [
                2.84298038482666,
                2.84298038482666,
                2.84298038482666
            ],
            "translation" : [
                0,
                2.4819908142089844,
                0
            ]
        },
        {
            "mesh" : 0,
            "name" : "Plane.052",
            "translation" : [
                -0.8606376051902771,
                -0.027150005102157593,
                0
            ]
        },
        {
            "mesh" : 1,
            "name" : "Plane.053",
            "rotation" : [
                0,
                0.7071068286895752,
                0,
                0.7071068286895752
            ],
            "scale" : [
                0.6061288714408875,
                0.6061287522315979,
                0.6061286926269531
            ],
            "translation" : [
                -0.8493180871009827,
                0.4523927569389343,
                0.011096730828285217
            ]
        },
        {
            "mesh" : 2,
            "name" : "Plane.054",
            "rotation" : [
                0,
                0.7071068286895752,
                0,
                0.7071068286895752
            ],
            "scale" : [
                0.6061288714408875,
                0.6061287522315979,
                0.6061286926269531
            ],
            "translation" : [
                -0.8606329560279846,
                0.5261293053627014,
                -0.038405030965805054
            ]
        },
        {
            "mesh" : 3,
            "name" : "Plane.055",
            "rotation" : [
                0,
                0,
                0.3112775981426239,
                0.9503190517425537
            ],
            "scale" : [
                0.6061288714408875,
                0.6061288714408875,
                0.6061287522315979
            ],
            "translation" : [
                -0.8861330151557922,
                0.5079928636550903,
                -0.28235605359077454
            ]
        },
        {
            "children" : [
                1,
                2,
                3,
                4
            ],
            "mesh" : 4,
            "name" : "Cube.014",
            "rotation" : [
                0.5043385028839111,
                -0.49562355875968933,
                -0.5043385028839111,
                0.49562352895736694
            ],
            "scale" : [
                2.034883737564087,
                2.034883737564087,
                2.034883975982666
            ],
            "translation" : [
                -0.17738652229309082,
                2.375054359436035,
                -0.33769750595092773
            ]
        }
    ],
    "materials" : [
        {
            "doubleSided" : true,
            "name" : "2.1 Biru muda.012",
            "pbrMetallicRoughness" : {
                "baseColorFactor" : [
                    0.16434596478939056,
                    0.31350550055503845,
                    0.7874122262001038,
                    1
                ],
                "metallicFactor" : 0.20000000298023224,
                "roughnessFactor" : 0.5
            }
        },
        {
            "doubleSided" : true,
            "name" : "2.1 Biru.010",
            "pbrMetallicRoughness" : {
                "baseColorFactor" : [
                    0,
                    0.08021999895572662,
                    1,
                    1
                ],
                "metallicFactor" : 0.30000001192092896,
                "roughnessFactor" : 0.5
            }
        },
        {
            "doubleSided" : true,
            "name" : "7. puith.005",
            "pbrMetallicRoughness" : {
                "baseColorFactor" : [
                    0.800000011920929,
                    0.800000011920929,
                    0.800000011920929,
                    1
                ],
                "metallicFactor" : 0,
                "roughnessFactor" : 0.5
            }
        }
    ],
    "meshes" : [
        {
            "name" : "Plane.090",
            "primitives" : [
                {
                    "attributes" : {
                        "POSITION" : 0,
                        "NORMAL" : 1
                    },
                    "indices" : 2,
                    "material" : 0
                }
            ]
        },
        {
            "name" : "Plane.091",
            "primitives" : [
                {
                    "attributes" : {
                        "POSITION" : 3,
                        "NORMAL" : 4,
                        "TEXCOORD_0" : 5
                    },
                    "indices" : 6,
                    "material" : 0
                }
            ]
        },
        {
            "name" : "Plane.092",
            "primitives" : [
                {
                    "attributes" : {
                        "POSITION" : 7,
                        "NORMAL" : 8
                    },
                    "indices" : 9,
                    "material" : 1
                }
            ]
        },
        {
            "name" : "Plane.094",
            "primitives" : [
                {
                    "attributes" : {
                        "POSITION" : 10,
                        "NORMAL" : 11
                    },
                    "indices" : 9,
                    "material" : 1
                }
            ]
        },
        {
            "name" : "Cube.041",
            "primitives" : [
                {
                    "attributes" : {
                        "POSITION" : 12,
                        "NORMAL" : 13,
                        "TEXCOORD_0" : 14
                    },
                    "indices" : 15,
                    "material" : 2
                }
            ]
        }
    ],
    "accessors" : [
        {
            "bufferView" : 0,
            "componentType" : 5126,
            "count" : 7298,
            "max" : [
                0.7037545442581177,
                1.3753799200057983,
                0.14249329268932343
            ],
            "min" : [
                -0.14249329268932343,
                0.29897770285606384,
                -0.14249329268932343
            ],
            "type" : "VEC3"
        },
        {
            "bufferView" : 1,
            "componentType" : 5126,
            "count" : 7298,
            "type" : "VEC3"
        },
        {
            "bufferView" : 2,
            "componentType" : 5123,
            "count" : 43776,
            "type" : "SCALAR"
        },
        {
            "bufferView" : 3,
            "componentType" : 5126,
            "count" : 6900,
            "max" : [
                0.6119858622550964,
                -0.0007788465009070933,
                0.28400561213493347
            ],
            "min" : [
                -0.6119859218597412,
                -0.25581803917884827,
                -0.2840055823326111
            ],
            "type" : "VEC3"
        },
        {
            "bufferView" : 4,
            "componentType" : 5126,
            "count" : 6900,
            "type" : "VEC3"
        },
        {
            "bufferView" : 5,
            "componentType" : 5126,
            "count" : 6900,
            "type" : "VEC2"
        },
        {
            "bufferView" : 6,
            "componentType" : 5123,
            "count" : 36864,
            "type" : "SCALAR"
        },
        {
            "bufferView" : 7,
            "componentType" : 5126,
            "count" : 1154,
            "max" : [
                0.5680335164070129,
                0.13333402574062347,
                0.13333402574062347
            ],
            "min" : [
                0.005717582069337368,
                -0.13333402574062347,
                -0.13333402574062347
            ],
            "type" : "VEC3"
        },
        {
            "bufferView" : 8,
            "componentType" : 5126,
            "count" : 1154,
            "type" : "VEC3"
        },
        {
            "bufferView" : 9,
            "componentType" : 5123,
            "count" : 6912,
            "type" : "SCALAR"
        },
        {
            "bufferView" : 10,
            "componentType" : 5126,
            "count" : 1154,
            "max" : [
                0.4893484115600586,
                0.08472175896167755,
                0.08472175896167755
            ],
            "min" : [
                0.08065057545900345,
                -0.08472175896167755,
                -0.08472175896167755
            ],
            "type" : "VEC3"
        },
        {
            "bufferView" : 11,
            "componentType" : 5126,
            "count" : 1154,
            "type" : "VEC3"
        },
        {
            "bufferView" : 12,
            "componentType" : 5126,
            "count" : 9785,
            "max" : [
                1.075344204902649,
                0.3396513760089874,
                0.9901041984558105
            ],
            "min" : [
                -1.1708755493164062,
                -0.5311368703842163,
                -0.9901040196418762
            ],
            "type" : "VEC3"
        },
        {
            "bufferView" : 13,
            "componentType" : 5126,
            "count" : 9785,
            "type" : "VEC3"
        },
        {
            "bufferView" : 14,
            "componentType" : 5126,
            "count" : 9785,
            "type" : "VEC2"
        },
        {
            "bufferView" : 15,
            "componentType" : 5123,
            "count" : 52800,
            "type" : "SCALAR"
        }
    ],
    "bufferViews" : [
        {
            "buffer" : 0,
            "byteLength" : 87576,
            "byteOffset" : 0
        },
        {
            "buffer" : 0,
            "byteLength" : 87576,
            "byteOffset" : 87576
        },
        {
            "buffer" : 0,
            "byteLength" : 87552,
            "byteOffset" : 175152
        },
        {
            "buffer" : 0,
            "byteLength" : 82800,
            "byteOffset" : 262704
        },
        {
            "buffer" : 0,
            "byteLength" : 82800,
            "byteOffset" : 345504
        },
        {
            "buffer" : 0,
            "byteLength" : 55200,
            "byteOffset" : 428304
        },
        {
            "buffer" : 0,
            "byteLength" : 73728,
            "byteOffset" : 483504
        },
        {
            "buffer" : 0,
            "byteLength" : 13848,
            "byteOffset" : 557232
        },
        {
            "buffer" : 0,
            "byteLength" : 13848,
            "byteOffset" : 571080
        },
        {
            "buffer" : 0,
            "byteLength" : 13824,
            "byteOffset" : 584928
        },
        {
            "buffer" : 0,
            "byteLength" : 13848,
            "byteOffset" : 598752
        },
        {
            "buffer" : 0,
            "byteLength" : 13848,
            "byteOffset" : 612600
        },
        {
            "buffer" : 0,
            "byteLength" : 117420,
            "byteOffset" : 626448
        },
        {
            "buffer" : 0,
            "byteLength" : 117420,
            "byteOffset" : 743868
        },
        {
            "buffer" : 0,
            "byteLength" : 78280,
            "byteOffset" : 861288
        },
        {
            "buffer" : 0,
            "byteLength" : 105600,
            "byteOffset" : 939568
        }
    ],
    "buffers" : [
        {
            "byteLength" : 1045168,
            "uri" : "data:application/octet-stream;base64,"
        }
    ]
}
