{
    "asset" : {
        "generator" : "Khronos glTF Blender I/O v1.7.33",
        "version" : "2.0"
    },
    "scene" : 0,
    "scenes" : [
        {
            "name" : "Scene",
            "nodes" : [
                0,
                1,
                2,
                3,
                4,
                5
            ]
        }
    ],
    "nodes" : [
        {
            "name" : "Empty",
            "scale" : [
                2.84298038482666,
                2.84298038482666,
                2.84298038482666
            ],
            "translation" : [
                0,
                2.4819908142089844,
                0
            ]
        },
        {
            "mesh" : 0,
            "name" : "Cube.016",
            "rotation" : [
                -0.1464466154575348,
                -0.35355344414711,
                0.3535533845424652,
                0.8535533547401428
            ],
            "scale" : [
                1.2930171489715576,
                1.2930171489715576,
                1.2930171489715576
            ],
            "translation" : [
                0.8981887102127075,
                0.9800072312355042,
                0.8558727502822876
            ]
        },
        {
            "mesh" : 1,
            "name" : "Cube.017",
            "rotation" : [
                -0.1464466154575348,
                -0.35355344414711,
                0.3535533845424652,
                0.8535533547401428
            ],
            "scale" : [
                1.2930171489715576,
                1.2930171489715576,
                1.2930171489715576
            ],
            "translation" : [
                -0.044186338782310486,
                2.3127267360687256,
                -0.08650243282318115
            ]
        },
        {
            "mesh" : 2,
            "name" : "Plane.015",
            "rotation" : [
                0.4999999701976776,
                0,
                0.5000000596046448,
                0.7071067690849304
            ],
            "scale" : [
                1.2930171489715576,
                1.2930171489715576,
                1.2930171489715576
            ],
            "translation" : [
                -0.7596517205238342,
                3.324547529220581,
                -0.8019679188728333
            ]
        },
        {
            "mesh" : 3,
            "name" : "Cube.018",
            "rotation" : [
                -0.1464466154575348,
                -0.35355344414711,
                0.3535533845424652,
                0.8535533547401428
            ],
            "scale" : [
                1.2930171489715576,
                1.2930171489715576,
                1.2930171489715576
            ],
            "translation" : [
                -1.4593396186828613,
                3.524651527404785,
                -0.9130268096923828
            ]
        },
        {
            "mesh" : 4,
            "name" : "Plane.057",
            "rotation" : [
                0.6532815098762512,
                -0.27059805393218994,
                0.27059805393218994,
                0.6532814502716064
            ],
            "scale" : [
                1.3479872941970825,
                1.3479872941970825,
                1.3479872941970825
            ],
            "translation" : [
                -0.9930492639541626,
                2.0845160484313965,
                0.3582097291946411
            ]
        }
    ],
    "materials" : [
        {
            "doubleSided" : true,
            "name" : "2.1 Biru.011",
            "pbrMetallicRoughness" : {
                "baseColorFactor" : [
                    0,
                    0.08021999895572662,
                    1,
                    1
                ],
                "metallicFactor" : 0.30000001192092896,
                "roughnessFactor" : 0.5
            }
        },
        {
            "doubleSided" : true,
            "name" : "2.1 Biru muda.013",
            "pbrMetallicRoughness" : {
                "baseColorFactor" : [
                    0.16434596478939056,
                    0.31350550055503845,
                    0.7874122262001038,
                    1
                ],
                "metallicFactor" : 0.20000000298023224,
                "roughnessFactor" : 0.5
            }
        }
    ],
    "meshes" : [
        {
            "name" : "Cube.042",
            "primitives" : [
                {
                    "attributes" : {
                        "POSITION" : 0,
                        "NORMAL" : 1,
                        "TEXCOORD_0" : 2
                    },
                    "indices" : 3,
                    "material" : 0
                }
            ]
        },
        {
            "name" : "Cube.043",
            "primitives" : [
                {
                    "attributes" : {
                        "POSITION" : 4,
                        "NORMAL" : 5,
                        "TEXCOORD_0" : 6
                    },
                    "indices" : 7,
                    "material" : 1
                }
            ]
        },
        {
            "name" : "Plane.099",
            "primitives" : [
                {
                    "attributes" : {
                        "POSITION" : 8,
                        "NORMAL" : 9,
                        "TEXCOORD_0" : 10
                    },
                    "indices" : 11,
                    "material" : 0
                }
            ]
        },
        {
            "name" : "Cube.044",
            "primitives" : [
                {
                    "attributes" : {
                        "POSITION" : 12,
                        "NORMAL" : 13,
                        "TEXCOORD_0" : 14
                    },
                    "indices" : 15,
                    "material" : 1
                }
            ]
        },
        {
            "name" : "Plane.103",
            "primitives" : [
                {
                    "attributes" : {
                        "POSITION" : 16,
                        "NORMAL" : 17,
                        "TEXCOORD_0" : 18
                    },
                    "indices" : 19
                }
            ]
        }
    ],
    "accessors" : [
        {
            "bufferView" : 0,
            "componentType" : 5126,
            "count" : 20515,
            "max" : [
                0.3657909333705902,
                1.2786600589752197,
                0.3657909333705902
            ],
            "min" : [
                -0.3657909333705902,
                -0.9073013663291931,
                -0.3657909333705902
            ],
            "type" : "VEC3"
        },
        {
            "bufferView" : 1,
            "componentType" : 5126,
            "count" : 20515,
            "type" : "VEC3"
        },
        {
            "bufferView" : 2,
            "componentType" : 5126,
            "count" : 20515,
            "type" : "VEC2"
        },
        {
            "bufferView" : 3,
            "componentType" : 5123,
            "count" : 107520,
            "type" : "SCALAR"
        },
        {
            "bufferView" : 4,
            "componentType" : 5126,
            "count" : 13263,
            "max" : [
                0.1859537661075592,
                0.4007001221179962,
                0.1859537661075592
            ],
            "min" : [
                -0.1859537661075592,
                -0.45054104924201965,
                -0.1859537661075592
            ],
            "type" : "VEC3"
        },
        {
            "bufferView" : 5,
            "componentType" : 5126,
            "count" : 13263,
            "type" : "VEC3"
        },
        {
            "bufferView" : 6,
            "componentType" : 5126,
            "count" : 13263,
            "type" : "VEC2"
        },
        {
            "bufferView" : 7,
            "componentType" : 5123,
            "count" : 70656,
            "type" : "SCALAR"
        },
        {
            "bufferView" : 8,
            "componentType" : 5126,
            "count" : 2618,
            "max" : [
                0.5926642417907715,
                0.2693844139575958,
                0.8393845558166504
            ],
            "min" : [
                -0.5926642417907715,
                -0.249673992395401,
                -0.8393845558166504
            ],
            "type" : "VEC3"
        },
        {
            "bufferView" : 9,
            "componentType" : 5126,
            "count" : 2618,
            "type" : "VEC3"
        },
        {
            "bufferView" : 10,
            "componentType" : 5126,
            "count" : 2618,
            "type" : "VEC2"
        },
        {
            "bufferView" : 11,
            "componentType" : 5123,
            "count" : 15360,
            "type" : "SCALAR"
        },
        {
            "bufferView" : 12,
            "componentType" : 5126,
            "count" : 6084,
            "max" : [
                0.669826865196228,
                0.21982738375663757,
                0.3110446035861969
            ],
            "min" : [
                -0.21982689201831818,
                -1.0798263549804688,
                -0.3110446035861969
            ],
            "type" : "VEC3"
        },
        {
            "bufferView" : 13,
            "componentType" : 5126,
            "count" : 6084,
            "type" : "VEC3"
        },
        {
            "bufferView" : 14,
            "componentType" : 5126,
            "count" : 6084,
            "type" : "VEC2"
        },
        {
            "bufferView" : 15,
            "componentType" : 5123,
            "count" : 32256,
            "type" : "SCALAR"
        },
        {
            "bufferView" : 16,
            "componentType" : 5126,
            "count" : 992,
            "max" : [
                0.42028284072875977,
                -0.1299271583557129,
                0.5161100625991821
            ],
            "min" : [
                -0.37445196509361267,
                -0.2738620340824127,
                -0.22602489590644836
            ],
            "type" : "VEC3"
        },
        {
            "bufferView" : 17,
            "componentType" : 5126,
            "count" : 992,
            "type" : "VEC3"
        },
        {
            "bufferView" : 18,
            "componentType" : 5126,
            "count" : 992,
            "type" : "VEC2"
        },
        {
            "bufferView" : 19,
            "componentType" : 5123,
            "count" : 3840,
            "type" : "SCALAR"
        }
    ],
    "bufferViews" : [
        {
            "buffer" : 0,
            "byteLength" : 246180,
            "byteOffset" : 0
        },
        {
            "buffer" : 0,
            "byteLength" : 246180,
            "byteOffset" : 246180
        },
        {
            "buffer" : 0,
            "byteLength" : 164120,
            "byteOffset" : 492360
        },
        {
            "buffer" : 0,
            "byteLength" : 215040,
            "byteOffset" : 656480
        },
        {
            "buffer" : 0,
            "byteLength" : 159156,
            "byteOffset" : 871520
        },
        {
            "buffer" : 0,
            "byteLength" : 159156,
            "byteOffset" : 1030676
        },
        {
            "buffer" : 0,
            "byteLength" : 106104,
            "byteOffset" : 1189832
        },
        {
            "buffer" : 0,
            "byteLength" : 141312,
            "byteOffset" : 1295936
        },
        {
            "buffer" : 0,
            "byteLength" : 31416,
            "byteOffset" : 1437248
        },
        {
            "buffer" : 0,
            "byteLength" : 31416,
            "byteOffset" : 1468664
        },
        {
            "buffer" : 0,
            "byteLength" : 20944,
            "byteOffset" : 1500080
        },
        {
            "buffer" : 0,
            "byteLength" : 30720,
            "byteOffset" : 1521024
        },
        {
            "buffer" : 0,
            "byteLength" : 73008,
            "byteOffset" : 1551744
        },
        {
            "buffer" : 0,
            "byteLength" : 73008,
            "byteOffset" : 1624752
        },
        {
            "buffer" : 0,
            "byteLength" : 48672,
            "byteOffset" : 1697760
        },
        {
            "buffer" : 0,
            "byteLength" : 64512,
            "byteOffset" : 1746432
        },
        {
            "buffer" : 0,
            "byteLength" : 11904,
            "byteOffset" : 1810944
        },
        {
            "buffer" : 0,
            "byteLength" : 11904,
            "byteOffset" : 1822848
        },
        {
            "buffer" : 0,
            "byteLength" : 7936,
            "byteOffset" : 1834752
        },
        {
            "buffer" : 0,
            "byteLength" : 7680,
            "byteOffset" : 1842688
        }
    ],
    "buffers" : [
        {
            "byteLength" : 1850368,
            "uri" : "data:application/octet-stream;base64,"
        }
    ]
}
