{
    "asset" : {
        "generator" : "Khronos glTF Blender I/O v1.7.33",
        "version" : "2.0"
    },
    "scene" : 0,
    "scenes" : [
        {
            "name" : "Scene",
            "nodes" : [
                0,
                1,
                2,
                3,
                4,
                5,
                6
            ]
        }
    ],
    "nodes" : [
        {
            "name" : "Empty",
            "scale" : [
                2.84298038482666,
                2.84298038482666,
                2.84298038482666
            ],
            "translation" : [
                0,
                2.4819908142089844,
                0
            ]
        },
        {
            "mesh" : 0,
            "name" : "Plane.058",
            "rotation" : [
                0.6532815098762512,
                -0.27059805393218994,
                0.27059805393218994,
                0.6532814502716064
            ],
            "scale" : [
                0.9541442394256592,
                0.9541442394256592,
                0.9541442394256592
            ],
            "translation" : [
                -1.859825611114502,
                0.8799899220466614,
                0.474013090133667
            ]
        },
        {
            "mesh" : 1,
            "name" : "Cube.019",
            "rotation" : [
                0,
                -0.3826834559440613,
                0,
                0.9238795042037964
            ],
            "scale" : [
                0.9541442394256592,
                0.9541442394256592,
                0.9541442394256592
            ],
            "translation" : [
                0.09139692783355713,
                1.6117271184921265,
                0.09139692783355713
            ]
        },
        {
            "mesh" : 2,
            "name" : "Cylinder.016",
            "rotation" : [
                0,
                -0.3826834559440613,
                0,
                0.9238795042037964
            ],
            "scale" : [
                0.9541442394256592,
                0.9541442394256592,
                0.9541442394256592
            ],
            "translation" : [
                0.09139692783355713,
                3.4551753997802734,
                0.09139692783355713
            ]
        },
        {
            "mesh" : 3,
            "name" : "Cylinder.017",
            "rotation" : [
                0,
                -0.3826834559440613,
                0,
                0.9238795042037964
            ],
            "scale" : [
                0.9541442394256592,
                0.9541442394256592,
                0.9541442394256592
            ],
            "translation" : [
                0.09139692783355713,
                4.125234603881836,
                0.09139692783355713
            ]
        },
        {
            "mesh" : 4,
            "name" : "Plane.059",
            "rotation" : [
                0,
                -0.3826834559440613,
                0,
                0.9238795042037964
            ],
            "scale" : [
                0.9541442394256592,
                0.9541442394256592,
                0.9541442394256592
            ],
            "translation" : [
                -0.17000478506088257,
                4.266988754272461,
                -0.17000478506088257
            ]
        },
        {
            "mesh" : 5,
            "name" : "Cube.025",
            "rotation" : [
                0,
                -0.3826834559440613,
                0,
                0.9238795042037964
            ],
            "scale" : [
                0.9541442394256592,
                0.9541442394256592,
                0.9541442394256592
            ],
            "translation" : [
                0.09139692783355713,
                1.6117271184921265,
                0.09139692783355713
            ]
        }
    ],
    "materials" : [
        {
            "doubleSided" : true,
            "name" : "2.1 Biru.012",
            "pbrMetallicRoughness" : {
                "baseColorFactor" : [
                    0,
                    0.08021999895572662,
                    1,
                    1
                ],
                "metallicFactor" : 0.30000001192092896,
                "roughnessFactor" : 0.5
            }
        },
        {
            "doubleSided" : true,
            "name" : "2.1 Biru muda.014",
            "pbrMetallicRoughness" : {
                "baseColorFactor" : [
                    0.16434596478939056,
                    0.31350550055503845,
                    0.7874122262001038,
                    1
                ],
                "metallicFactor" : 0.20000000298023224,
                "roughnessFactor" : 0.5
            }
        }
    ],
    "meshes" : [
        {
            "name" : "Plane.110",
            "primitives" : [
                {
                    "attributes" : {
                        "POSITION" : 0,
                        "NORMAL" : 1,
                        "TEXCOORD_0" : 2
                    },
                    "indices" : 3
                }
            ]
        },
        {
            "name" : "Cube.045",
            "primitives" : [
                {
                    "attributes" : {
                        "POSITION" : 4,
                        "NORMAL" : 5,
                        "TEXCOORD_0" : 6
                    },
                    "indices" : 7,
                    "material" : 0
                }
            ]
        },
        {
            "name" : "Cylinder.035",
            "primitives" : [
                {
                    "attributes" : {
                        "POSITION" : 8,
                        "NORMAL" : 9,
                        "TEXCOORD_0" : 10
                    },
                    "indices" : 11,
                    "material" : 1
                }
            ]
        },
        {
            "name" : "Cylinder.036",
            "primitives" : [
                {
                    "attributes" : {
                        "POSITION" : 12,
                        "NORMAL" : 13,
                        "TEXCOORD_0" : 14
                    },
                    "indices" : 11,
                    "material" : 0
                }
            ]
        },
        {
            "name" : "Plane.111",
            "primitives" : [
                {
                    "attributes" : {
                        "POSITION" : 15,
                        "NORMAL" : 16,
                        "TEXCOORD_0" : 17
                    },
                    "indices" : 18,
                    "material" : 0
                }
            ]
        },
        {
            "name" : "Cube.046",
            "primitives" : [
                {
                    "attributes" : {
                        "POSITION" : 19,
                        "NORMAL" : 20,
                        "TEXCOORD_0" : 21
                    },
                    "indices" : 22,
                    "material" : 1
                }
            ]
        }
    ],
    "accessors" : [
        {
            "bufferView" : 0,
            "componentType" : 5126,
            "count" : 52,
            "max" : [
                0.673527181148529,
                -0.01932082325220108,
                0.600479781627655
            ],
            "min" : [
                -0.6843611001968384,
                -0.24164839088916779,
                -0.6761605739593506
            ],
            "type" : "VEC3"
        },
        {
            "bufferView" : 1,
            "componentType" : 5126,
            "count" : 52,
            "type" : "VEC3"
        },
        {
            "bufferView" : 2,
            "componentType" : 5126,
            "count" : 52,
            "type" : "VEC2"
        },
        {
            "bufferView" : 3,
            "componentType" : 5123,
            "count" : 288,
            "type" : "SCALAR"
        },
        {
            "bufferView" : 4,
            "componentType" : 5126,
            "count" : 10357,
            "max" : [
                1.3040422201156616,
                1.6581287384033203,
                1.3040422201156616
            ],
            "min" : [
                -1.304042100906372,
                -1.6894727945327759,
                -1.3040422201156616
            ],
            "type" : "VEC3"
        },
        {
            "bufferView" : 5,
            "componentType" : 5126,
            "count" : 10357,
            "type" : "VEC3"
        },
        {
            "bufferView" : 6,
            "componentType" : 5126,
            "count" : 10357,
            "type" : "VEC2"
        },
        {
            "bufferView" : 7,
            "componentType" : 5123,
            "count" : 58368,
            "type" : "SCALAR"
        },
        {
            "bufferView" : 8,
            "componentType" : 5126,
            "count" : 26545,
            "max" : [
                0.5893981456756592,
                0.525041937828064,
                0.5893980860710144
            ],
            "min" : [
                -0.5893980264663696,
                -0.5250371098518372,
                -0.5893980264663696
            ],
            "type" : "VEC3"
        },
        {
            "bufferView" : 9,
            "componentType" : 5126,
            "count" : 26545,
            "type" : "VEC3"
        },
        {
            "bufferView" : 10,
            "componentType" : 5126,
            "count" : 26545,
            "type" : "VEC2"
        },
        {
            "bufferView" : 11,
            "componentType" : 5123,
            "count" : 141312,
            "type" : "SCALAR"
        },
        {
            "bufferView" : 12,
            "componentType" : 5126,
            "count" : 26545,
            "max" : [
                0.2171170860528946,
                0.31296631693840027,
                0.2171170562505722
            ],
            "min" : [
                -0.21711699664592743,
                -0.31294962763786316,
                -0.21711702644824982
            ],
            "type" : "VEC3"
        },
        {
            "bufferView" : 13,
            "componentType" : 5126,
            "count" : 26545,
            "type" : "VEC3"
        },
        {
            "bufferView" : 14,
            "componentType" : 5126,
            "count" : 26545,
            "type" : "VEC2"
        },
        {
            "bufferView" : 15,
            "componentType" : 5126,
            "count" : 6288,
            "max" : [
                1.0075315237045288,
                0.4043647050857544,
                0.3285250663757324
            ],
            "min" : [
                -1.013836145401001,
                0.028138451278209686,
                -0.32852503657341003
            ],
            "type" : "VEC3"
        },
        {
            "bufferView" : 16,
            "componentType" : 5126,
            "count" : 6288,
            "type" : "VEC3"
        },
        {
            "bufferView" : 17,
            "componentType" : 5126,
            "count" : 6288,
            "type" : "VEC2"
        },
        {
            "bufferView" : 18,
            "componentType" : 5123,
            "count" : 34560,
            "type" : "SCALAR"
        },
        {
            "bufferView" : 19,
            "componentType" : 5126,
            "count" : 6513,
            "max" : [
                1.4381581544876099,
                0.31963127851486206,
                1.438158392906189
            ],
            "min" : [
                -1.438158392906189,
                -1.2795358896255493,
                -1.4381581544876099
            ],
            "type" : "VEC3"
        },
        {
            "bufferView" : 20,
            "componentType" : 5126,
            "count" : 6513,
            "type" : "VEC3"
        },
        {
            "bufferView" : 21,
            "componentType" : 5126,
            "count" : 6513,
            "type" : "VEC2"
        },
        {
            "bufferView" : 22,
            "componentType" : 5123,
            "count" : 36864,
            "type" : "SCALAR"
        }
    ],
    "bufferViews" : [
        {
            "buffer" : 0,
            "byteLength" : 624,
            "byteOffset" : 0
        },
        {
            "buffer" : 0,
            "byteLength" : 624,
            "byteOffset" : 624
        },
        {
            "buffer" : 0,
            "byteLength" : 416,
            "byteOffset" : 1248
        },
        {
            "buffer" : 0,
            "byteLength" : 576,
            "byteOffset" : 1664
        },
        {
            "buffer" : 0,
            "byteLength" : 124284,
            "byteOffset" : 2240
        },
        {
            "buffer" : 0,
            "byteLength" : 124284,
            "byteOffset" : 126524
        },
        {
            "buffer" : 0,
            "byteLength" : 82856,
            "byteOffset" : 250808
        },
        {
            "buffer" : 0,
            "byteLength" : 116736,
            "byteOffset" : 333664
        },
        {
            "buffer" : 0,
            "byteLength" : 318540,
            "byteOffset" : 450400
        },
        {
            "buffer" : 0,
            "byteLength" : 318540,
            "byteOffset" : 768940
        },
        {
            "buffer" : 0,
            "byteLength" : 212360,
            "byteOffset" : 1087480
        },
        {
            "buffer" : 0,
            "byteLength" : 282624,
            "byteOffset" : 1299840
        },
        {
            "buffer" : 0,
            "byteLength" : 318540,
            "byteOffset" : 1582464
        },
        {
            "buffer" : 0,
            "byteLength" : 318540,
            "byteOffset" : 1901004
        },
        {
            "buffer" : 0,
            "byteLength" : 212360,
            "byteOffset" : 2219544
        },
        {
            "buffer" : 0,
            "byteLength" : 75456,
            "byteOffset" : 2431904
        },
        {
            "buffer" : 0,
            "byteLength" : 75456,
            "byteOffset" : 2507360
        },
        {
            "buffer" : 0,
            "byteLength" : 50304,
            "byteOffset" : 2582816
        },
        {
            "buffer" : 0,
            "byteLength" : 69120,
            "byteOffset" : 2633120
        },
        {
            "buffer" : 0,
            "byteLength" : 78156,
            "byteOffset" : 2702240
        },
        {
            "buffer" : 0,
            "byteLength" : 78156,
            "byteOffset" : 2780396
        },
        {
            "buffer" : 0,
            "byteLength" : 52104,
            "byteOffset" : 2858552
        },
        {
            "buffer" : 0,
            "byteLength" : 73728,
            "byteOffset" : 2910656
        }
    ],
    "buffers" : [
        {
            "byteLength" : 2984384,
            "uri" : "data:application/octet-stream;base64,"
        }
    ]
}
