{
    "asset" : {
        "generator" : "Khronos glTF Blender I/O v1.7.33",
        "version" : "2.0"
    },
    "scene" : 0,
    "scenes" : [
        {
            "name" : "Scene",
            "nodes" : [
                0,
                1,
                2,
                3,
                4,
                5,
                6
            ]
        }
    ],
    "nodes" : [
        {
            "name" : "Empty",
            "scale" : [
                2.84298038482666,
                2.84298038482666,
                2.84298038482666
            ],
            "translation" : [
                0,
                2.4819908142089844,
                0
            ]
        },
        {
            "mesh" : 0,
            "name" : "Cube",
            "rotation" : [
                0,
                -0.3826834559440613,
                0,
                0.9238795042037964
            ],
            "scale" : [
                0.8637935519218445,
                0.8637935519218445,
                0.8637935519218445
            ],
            "translation" : [
                0.045902058482170105,
                1.3044960498809814,
                0.07890571653842926
            ]
        },
        {
            "mesh" : 1,
            "name" : "Cylinder",
            "rotation" : [
                0,
                -0.3826834559440613,
                0,
                0.9238795042037964
            ],
            "scale" : [
                0.8637935519218445,
                0.8637935519218445,
                0.8637935519218445
            ],
            "translation" : [
                0.2611028850078583,
                3.638976812362671,
                0.2819090783596039
            ]
        },
        {
            "mesh" : 2,
            "name" : "Plane.002",
            "rotation" : [
                0.6532815098762512,
                -0.27059805393218994,
                0.27059805393218994,
                0.6532814502716064
            ],
            "scale" : [
                0.9125788807868958,
                0.9125788807868958,
                0.9125788807868958
            ],
            "translation" : [
                0.20401114225387573,
                3.7664601802825928,
                0.33099859952926636
            ]
        },
        {
            "mesh" : 3,
            "name" : "Cube.002",
            "rotation" : [
                -0.19177702069282532,
                -0.3311619460582733,
                0.4629906415939331,
                0.7994954586029053
            ],
            "scale" : [
                0.8637937903404236,
                0.8637937903404236,
                0.8637935519218445
            ],
            "translation" : [
                -0.11976375430822372,
                4.204810619354248,
                -0.12051989883184433
            ]
        },
        {
            "mesh" : 4,
            "name" : "Plane.030",
            "rotation" : [
                0.6532815098762512,
                -0.27059805393218994,
                0.27059805393218994,
                0.6532814502716064
            ],
            "scale" : [
                0.9125788807868958,
                0.9125788807868958,
                0.9125788807868958
            ],
            "translation" : [
                -0.8562236428260803,
                2.154845714569092,
                0.07997596263885498
            ]
        },
        {
            "mesh" : 5,
            "name" : "Cube.024",
            "rotation" : [
                0,
                -0.3826834559440613,
                0,
                0.9238795042037964
            ],
            "scale" : [
                0.8637935519218445,
                0.8637935519218445,
                0.8637935519218445
            ],
            "translation" : [
                0.045902058482170105,
                1.3044960498809814,
                0.07890571653842926
            ]
        }
    ],
    "materials" : [
        {
            "doubleSided" : true,
            "name" : "2.1 Biru.001",
            "pbrMetallicRoughness" : {
                "baseColorFactor" : [
                    0,
                    0.08021999895572662,
                    1,
                    1
                ],
                "metallicFactor" : 0.30000001192092896,
                "roughnessFactor" : 0.5
            }
        },
        {
            "doubleSided" : true,
            "name" : "2.1 Biru muda.001",
            "pbrMetallicRoughness" : {
                "baseColorFactor" : [
                    0.16434596478939056,
                    0.31350550055503845,
                    0.7874122262001038,
                    1
                ],
                "metallicFactor" : 0.20000000298023224,
                "roughnessFactor" : 0.5
            }
        },
        {
            "doubleSided" : true,
            "emissiveFactor" : [
                0.19433604180812836,
                0.19433604180812836,
                0.19433604180812836
            ],
            "name" : "Material.003",
            "pbrMetallicRoughness" : {
                "baseColorFactor" : [
                    0.800000011920929,
                    0.800000011920929,
                    0.800000011920929,
                    1
                ],
                "metallicFactor" : 0,
                "roughnessFactor" : 0.5
            }
        }
    ],
    "meshes" : [
        {
            "name" : "Cube.006",
            "primitives" : [
                {
                    "attributes" : {
                        "POSITION" : 0,
                        "NORMAL" : 1,
                        "TEXCOORD_0" : 2
                    },
                    "indices" : 3,
                    "material" : 0
                }
            ]
        },
        {
            "name" : "Cylinder.012",
            "primitives" : [
                {
                    "attributes" : {
                        "POSITION" : 4,
                        "NORMAL" : 5,
                        "TEXCOORD_0" : 6
                    },
                    "indices" : 7,
                    "material" : 1
                }
            ]
        },
        {
            "name" : "Plane.015",
            "primitives" : [
                {
                    "attributes" : {
                        "POSITION" : 8,
                        "NORMAL" : 9,
                        "TEXCOORD_0" : 10
                    },
                    "indices" : 11,
                    "material" : 0
                }
            ]
        },
        {
            "name" : "Cube.021",
            "primitives" : [
                {
                    "attributes" : {
                        "POSITION" : 12,
                        "NORMAL" : 13,
                        "TEXCOORD_0" : 14
                    },
                    "indices" : 15,
                    "material" : 1
                }
            ]
        },
        {
            "name" : "Plane.016",
            "primitives" : [
                {
                    "attributes" : {
                        "POSITION" : 16,
                        "NORMAL" : 17,
                        "TEXCOORD_0" : 18
                    },
                    "indices" : 19,
                    "material" : 2
                }
            ]
        },
        {
            "name" : "Cube.027",
            "primitives" : [
                {
                    "attributes" : {
                        "POSITION" : 20,
                        "NORMAL" : 21,
                        "TEXCOORD_0" : 22
                    },
                    "indices" : 23,
                    "material" : 1
                }
            ]
        }
    ],
    "accessors" : [
        {
            "bufferView" : 0,
            "componentType" : 5126,
            "count" : 6278,
            "max" : [
                1.1755398511886597,
                2.5557098388671875,
                0.716947078704834
            ],
            "min" : [
                -1.4224668741226196,
                -1.4613922834396362,
                -0.7169471979141235
            ],
            "type" : "VEC3"
        },
        {
            "bufferView" : 1,
            "componentType" : 5126,
            "count" : 6278,
            "type" : "VEC3"
        },
        {
            "bufferView" : 2,
            "componentType" : 5126,
            "count" : 6278,
            "type" : "VEC2"
        },
        {
            "bufferView" : 3,
            "componentType" : 5123,
            "count" : 33216,
            "type" : "SCALAR"
        },
        {
            "bufferView" : 4,
            "componentType" : 5126,
            "count" : 6265,
            "max" : [
                0.7062683701515198,
                0.21523697674274445,
                0.4753895699977875
            ],
            "min" : [
                -0.7062681913375854,
                -0.21513350307941437,
                -0.4753895699977875
            ],
            "type" : "VEC3"
        },
        {
            "bufferView" : 5,
            "componentType" : 5126,
            "count" : 6265,
            "type" : "VEC3"
        },
        {
            "bufferView" : 6,
            "componentType" : 5126,
            "count" : 6265,
            "type" : "VEC2"
        },
        {
            "bufferView" : 7,
            "componentType" : 5123,
            "count" : 33792,
            "type" : "SCALAR"
        },
        {
            "bufferView" : 8,
            "componentType" : 5126,
            "count" : 18104,
            "max" : [
                0.688515305519104,
                0.13391602039337158,
                0.008085699751973152
            ],
            "min" : [
                -1.4306402206420898,
                -0.3318789005279541,
                -1.133402943611145
            ],
            "type" : "VEC3"
        },
        {
            "bufferView" : 9,
            "componentType" : 5126,
            "count" : 18104,
            "type" : "VEC3"
        },
        {
            "bufferView" : 10,
            "componentType" : 5126,
            "count" : 18104,
            "type" : "VEC2"
        },
        {
            "bufferView" : 11,
            "componentType" : 5123,
            "count" : 99072,
            "type" : "SCALAR"
        },
        {
            "bufferView" : 12,
            "componentType" : 5126,
            "count" : 8274,
            "max" : [
                0.2362496554851532,
                0.22751806676387787,
                0.1720266342163086
            ],
            "min" : [
                -0.8446311354637146,
                -0.2082013487815857,
                -0.17202669382095337
            ],
            "type" : "VEC3"
        },
        {
            "bufferView" : 13,
            "componentType" : 5126,
            "count" : 8274,
            "type" : "VEC3"
        },
        {
            "bufferView" : 14,
            "componentType" : 5126,
            "count" : 8274,
            "type" : "VEC2"
        },
        {
            "bufferView" : 15,
            "componentType" : 5123,
            "count" : 43008,
            "type" : "SCALAR"
        },
        {
            "bufferView" : 16,
            "componentType" : 5126,
            "count" : 992,
            "max" : [
                0.6384753584861755,
                0.08881150186061859,
                0.30670127272605896
            ],
            "min" : [
                -0.2863489091396332,
                -0.09630988538265228,
                -0.7357919812202454
            ],
            "type" : "VEC3"
        },
        {
            "bufferView" : 17,
            "componentType" : 5126,
            "count" : 992,
            "type" : "VEC3"
        },
        {
            "bufferView" : 18,
            "componentType" : 5126,
            "count" : 992,
            "type" : "VEC2"
        },
        {
            "bufferView" : 19,
            "componentType" : 5123,
            "count" : 3840,
            "type" : "SCALAR"
        },
        {
            "bufferView" : 20,
            "componentType" : 5126,
            "count" : 19454,
            "max" : [
                1.2710233926773071,
                0.42510750889778137,
                0.7611450552940369
            ],
            "min" : [
                -1.4818861484527588,
                -1.0721611976623535,
                -0.761145293712616
            ],
            "type" : "VEC3"
        },
        {
            "bufferView" : 21,
            "componentType" : 5126,
            "count" : 19454,
            "type" : "VEC3"
        },
        {
            "bufferView" : 22,
            "componentType" : 5126,
            "count" : 19454,
            "type" : "VEC2"
        },
        {
            "bufferView" : 23,
            "componentType" : 5123,
            "count" : 110592,
            "type" : "SCALAR"
        }
    ],
    "bufferViews" : [
        {
            "buffer" : 0,
            "byteLength" : 75336,
            "byteOffset" : 0
        },
        {
            "buffer" : 0,
            "byteLength" : 75336,
            "byteOffset" : 75336
        },
        {
            "buffer" : 0,
            "byteLength" : 50224,
            "byteOffset" : 150672
        },
        {
            "buffer" : 0,
            "byteLength" : 66432,
            "byteOffset" : 200896
        },
        {
            "buffer" : 0,
            "byteLength" : 75180,
            "byteOffset" : 267328
        },
        {
            "buffer" : 0,
            "byteLength" : 75180,
            "byteOffset" : 342508
        },
        {
            "buffer" : 0,
            "byteLength" : 50120,
            "byteOffset" : 417688
        },
        {
            "buffer" : 0,
            "byteLength" : 67584,
            "byteOffset" : 467808
        },
        {
            "buffer" : 0,
            "byteLength" : 217248,
            "byteOffset" : 535392
        },
        {
            "buffer" : 0,
            "byteLength" : 217248,
            "byteOffset" : 752640
        },
        {
            "buffer" : 0,
            "byteLength" : 144832,
            "byteOffset" : 969888
        },
        {
            "buffer" : 0,
            "byteLength" : 198144,
            "byteOffset" : 1114720
        },
        {
            "buffer" : 0,
            "byteLength" : 99288,
            "byteOffset" : 1312864
        },
        {
            "buffer" : 0,
            "byteLength" : 99288,
            "byteOffset" : 1412152
        },
        {
            "buffer" : 0,
            "byteLength" : 66192,
            "byteOffset" : 1511440
        },
        {
            "buffer" : 0,
            "byteLength" : 86016,
            "byteOffset" : 1577632
        },
        {
            "buffer" : 0,
            "byteLength" : 11904,
            "byteOffset" : 1663648
        },
        {
            "buffer" : 0,
            "byteLength" : 11904,
            "byteOffset" : 1675552
        },
        {
            "buffer" : 0,
            "byteLength" : 7936,
            "byteOffset" : 1687456
        },
        {
            "buffer" : 0,
            "byteLength" : 7680,
            "byteOffset" : 1695392
        },
        {
            "buffer" : 0,
            "byteLength" : 233448,
            "byteOffset" : 1703072
        },
        {
            "buffer" : 0,
            "byteLength" : 233448,
            "byteOffset" : 1936520
        },
        {
            "buffer" : 0,
            "byteLength" : 155632,
            "byteOffset" : 2169968
        },
        {
            "buffer" : 0,
            "byteLength" : 221184,
            "byteOffset" : 2325600
        }
    ],
    "buffers" : [
        {
            "byteLength" : 2546784,
            "uri" : "data:application/octet-stream;base64,"
        }
    ]
}
