{
    "asset" : {
        "generator" : "Khronos glTF Blender I/O v1.7.33",
        "version" : "2.0"
    },
    "scene" : 0,
    "scenes" : [
        {
            "name" : "Scene",
            "nodes" : [
                0,
                1,
                2,
                3,
                4,
                5,
                6,
                7
            ]
        }
    ],
    "nodes" : [
        {
            "name" : "Empty",
            "scale" : [
                2.84298038482666,
                2.84298038482666,
                2.84298038482666
            ],
            "translation" : [
                0,
                2.4819908142089844,
                0
            ]
        },
        {
            "mesh" : 0,
            "name" : "Plane.066",
            "rotation" : [
                0,
                -0.3826834559440613,
                0,
                0.9238795042037964
            ],
            "scale" : [
                0.7283117771148682,
                0.7283117771148682,
                0.7283117771148682
            ],
            "translation" : [
                0.1419466733932495,
                2.4901084899902344,
                0.1419466733932495
            ]
        },
        {
            "mesh" : 1,
            "name" : "Cylinder.018",
            "rotation" : [
                0.27059802412986755,
                -0.2705979645252228,
                -0.6532814502716064,
                0.653281569480896
            ],
            "scale" : [
                0.7283117771148682,
                0.7283117771148682,
                0.7283117771148682
            ],
            "translation" : [
                1.024227261543274,
                2.4995994567871094,
                1.024227261543274
            ]
        },
        {
            "mesh" : 2,
            "name" : "Sphere.004",
            "rotation" : [
                0.27059802412986755,
                -0.2705979645252228,
                -0.6532814502716064,
                0.653281569480896
            ],
            "scale" : [
                0.7283117771148682,
                0.7283117771148682,
                0.7283117771148682
            ],
            "translation" : [
                -0.005130201578140259,
                2.4901084899902344,
                -0.005130201578140259
            ]
        },
        {
            "mesh" : 3,
            "name" : "Plane.067",
            "rotation" : [
                -0.2689426839351654,
                -0.2722434103488922,
                0.649285078048706,
                0.6572535634040833
            ],
            "scale" : [
                0.7283117771148682,
                0.7283117771148682,
                0.7283117771148682
            ],
            "translation" : [
                -0.0007390677928924561,
                3.3838963508605957,
                -0.0007390677928924561
            ]
        },
        {
            "mesh" : 4,
            "name" : "Plane.068",
            "rotation" : [
                -0.2689426839351654,
                -0.2722434103488922,
                0.649285078048706,
                0.6572535634040833
            ],
            "scale" : [
                0.7283117771148682,
                0.7283117771148682,
                0.7283117771148682
            ],
            "translation" : [
                -0.0007390677928924561,
                3.679718494415283,
                -0.0007390677928924561
            ]
        },
        {
            "mesh" : 5,
            "name" : "Cube.023",
            "rotation" : [
                0,
                -0.3826834559440613,
                0,
                0.9238795042037964
            ],
            "translation" : [
                -0.9425695538520813,
                0.2738081216812134,
                -0.9425695538520813
            ]
        },
        {
            "mesh" : 6,
            "name" : "Plane.069",
            "rotation" : [
                0.6590703725814819,
                -0.2561761736869812,
                0.2561762034893036,
                0.6590703725814819
            ],
            "translation" : [
                0.10042309761047363,
                1.979270577430725,
                1.209519386291504
            ]
        }
    ],
    "materials" : [
        {
            "doubleSided" : true,
            "name" : "2.1 Biru muda.016",
            "pbrMetallicRoughness" : {
                "baseColorFactor" : [
                    0.16434596478939056,
                    0.31350550055503845,
                    0.7874122262001038,
                    1
                ],
                "metallicFactor" : 0.20000000298023224,
                "roughnessFactor" : 0.5
            }
        },
        {
            "doubleSided" : true,
            "name" : "2.1 Biru.014",
            "pbrMetallicRoughness" : {
                "baseColorFactor" : [
                    0,
                    0.08021999895572662,
                    1,
                    1
                ],
                "metallicFactor" : 0.30000001192092896,
                "roughnessFactor" : 0.5
            }
        }
    ],
    "meshes" : [
        {
            "name" : "Plane.118",
            "primitives" : [
                {
                    "attributes" : {
                        "POSITION" : 0,
                        "NORMAL" : 1
                    },
                    "indices" : 2,
                    "material" : 0
                }
            ]
        },
        {
            "name" : "Cylinder.037",
            "primitives" : [
                {
                    "attributes" : {
                        "POSITION" : 3,
                        "NORMAL" : 4,
                        "TEXCOORD_0" : 5
                    },
                    "indices" : 6,
                    "material" : 1
                }
            ]
        },
        {
            "name" : "Sphere.009",
            "primitives" : [
                {
                    "attributes" : {
                        "POSITION" : 7,
                        "NORMAL" : 8,
                        "TEXCOORD_0" : 9
                    },
                    "indices" : 10,
                    "material" : 1
                }
            ]
        },
        {
            "name" : "Plane.119",
            "primitives" : [
                {
                    "attributes" : {
                        "POSITION" : 11,
                        "NORMAL" : 12
                    },
                    "indices" : 13,
                    "material" : 0
                }
            ]
        },
        {
            "name" : "Plane.120",
            "primitives" : [
                {
                    "attributes" : {
                        "POSITION" : 14,
                        "NORMAL" : 15
                    },
                    "indices" : 16,
                    "material" : 1
                }
            ]
        },
        {
            "name" : "Cube.050",
            "primitives" : [
                {
                    "attributes" : {
                        "POSITION" : 17,
                        "NORMAL" : 18,
                        "TEXCOORD_0" : 19
                    },
                    "indices" : 20,
                    "material" : 0
                }
            ]
        },
        {
            "name" : "Plane.121",
            "primitives" : [
                {
                    "attributes" : {
                        "POSITION" : 21,
                        "NORMAL" : 22,
                        "TEXCOORD_0" : 23
                    },
                    "indices" : 24
                }
            ]
        }
    ],
    "accessors" : [
        {
            "bufferView" : 0,
            "componentType" : 5126,
            "count" : 2946,
            "max" : [
                2.264932870864868,
                0.7291091084480286,
                0.6357868909835815
            ],
            "min" : [
                -2.705997943878174,
                -1.5949267148971558,
                -0.6182172298431396
            ],
            "type" : "VEC3"
        },
        {
            "bufferView" : 1,
            "componentType" : 5126,
            "count" : 2946,
            "type" : "VEC3"
        },
        {
            "bufferView" : 2,
            "componentType" : 5123,
            "count" : 17664,
            "type" : "SCALAR"
        },
        {
            "bufferView" : 3,
            "componentType" : 5126,
            "count" : 8742,
            "max" : [
                0.9734200239181519,
                0.6469470262527466,
                0.9734200239181519
            ],
            "min" : [
                -0.9734200239181519,
                -0.646946907043457,
                -0.9734200835227966
            ],
            "type" : "VEC3"
        },
        {
            "bufferView" : 4,
            "componentType" : 5126,
            "count" : 8742,
            "type" : "VEC3"
        },
        {
            "bufferView" : 5,
            "componentType" : 5126,
            "count" : 8742,
            "type" : "VEC2"
        },
        {
            "bufferView" : 6,
            "componentType" : 5123,
            "count" : 46080,
            "type" : "SCALAR"
        },
        {
            "bufferView" : 7,
            "componentType" : 5126,
            "count" : 16858,
            "max" : [
                1.1472781896591187,
                1.179674506187439,
                1.1472781896591187
            ],
            "min" : [
                -1.1472779512405396,
                -1.1796749830245972,
                -1.1472779512405396
            ],
            "type" : "VEC3"
        },
        {
            "bufferView" : 8,
            "componentType" : 5126,
            "count" : 16858,
            "type" : "VEC3"
        },
        {
            "bufferView" : 9,
            "componentType" : 5126,
            "count" : 16858,
            "type" : "VEC2"
        },
        {
            "bufferView" : 10,
            "componentType" : 5123,
            "count" : 95232,
            "type" : "SCALAR"
        },
        {
            "bufferView" : 11,
            "componentType" : 5126,
            "count" : 1154,
            "max" : [
                0.31841591000556946,
                0.5779420733451843,
                0.5759625434875488
            ],
            "min" : [
                -0.31841611862182617,
                -0.5779420733451843,
                -0.5759625434875488
            ],
            "type" : "VEC3"
        },
        {
            "bufferView" : 12,
            "componentType" : 5126,
            "count" : 1154,
            "type" : "VEC3"
        },
        {
            "bufferView" : 13,
            "componentType" : 5123,
            "count" : 6912,
            "type" : "SCALAR"
        },
        {
            "bufferView" : 14,
            "componentType" : 5126,
            "count" : 5250,
            "max" : [
                0.9928967952728271,
                1.352608323097229,
                1.345492959022522
            ],
            "min" : [
                -1.109978199005127,
                -1.3381770849227905,
                -1.3454923629760742
            ],
            "type" : "VEC3"
        },
        {
            "bufferView" : 15,
            "componentType" : 5126,
            "count" : 5250,
            "type" : "VEC3"
        },
        {
            "bufferView" : 16,
            "componentType" : 5123,
            "count" : 31488,
            "type" : "SCALAR"
        },
        {
            "bufferView" : 17,
            "componentType" : 5126,
            "count" : 441,
            "max" : [
                0.3740719258785248,
                0.7159943580627441,
                0.37407201528549194
            ],
            "min" : [
                -0.3740721046924591,
                -0.46424156427383423,
                -0.37407204508781433
            ],
            "type" : "VEC3"
        },
        {
            "bufferView" : 18,
            "componentType" : 5126,
            "count" : 441,
            "type" : "VEC3"
        },
        {
            "bufferView" : 19,
            "componentType" : 5126,
            "count" : 441,
            "type" : "VEC2"
        },
        {
            "bufferView" : 20,
            "componentType" : 5123,
            "count" : 2304,
            "type" : "SCALAR"
        },
        {
            "bufferView" : 21,
            "componentType" : 5126,
            "count" : 525,
            "max" : [
                0.5949329137802124,
                -0.022868037223815918,
                0.5300002098083496
            ],
            "min" : [
                -0.6127118468284607,
                -0.2387944757938385,
                -0.5987359881401062
            ],
            "type" : "VEC3"
        },
        {
            "bufferView" : 22,
            "componentType" : 5126,
            "count" : 525,
            "type" : "VEC3"
        },
        {
            "bufferView" : 23,
            "componentType" : 5126,
            "count" : 525,
            "type" : "VEC2"
        },
        {
            "bufferView" : 24,
            "componentType" : 5123,
            "count" : 2400,
            "type" : "SCALAR"
        }
    ],
    "bufferViews" : [
        {
            "buffer" : 0,
            "byteLength" : 35352,
            "byteOffset" : 0
        },
        {
            "buffer" : 0,
            "byteLength" : 35352,
            "byteOffset" : 35352
        },
        {
            "buffer" : 0,
            "byteLength" : 35328,
            "byteOffset" : 70704
        },
        {
            "buffer" : 0,
            "byteLength" : 104904,
            "byteOffset" : 106032
        },
        {
            "buffer" : 0,
            "byteLength" : 104904,
            "byteOffset" : 210936
        },
        {
            "buffer" : 0,
            "byteLength" : 69936,
            "byteOffset" : 315840
        },
        {
            "buffer" : 0,
            "byteLength" : 92160,
            "byteOffset" : 385776
        },
        {
            "buffer" : 0,
            "byteLength" : 202296,
            "byteOffset" : 477936
        },
        {
            "buffer" : 0,
            "byteLength" : 202296,
            "byteOffset" : 680232
        },
        {
            "buffer" : 0,
            "byteLength" : 134864,
            "byteOffset" : 882528
        },
        {
            "buffer" : 0,
            "byteLength" : 190464,
            "byteOffset" : 1017392
        },
        {
            "buffer" : 0,
            "byteLength" : 13848,
            "byteOffset" : 1207856
        },
        {
            "buffer" : 0,
            "byteLength" : 13848,
            "byteOffset" : 1221704
        },
        {
            "buffer" : 0,
            "byteLength" : 13824,
            "byteOffset" : 1235552
        },
        {
            "buffer" : 0,
            "byteLength" : 63000,
            "byteOffset" : 1249376
        },
        {
            "buffer" : 0,
            "byteLength" : 63000,
            "byteOffset" : 1312376
        },
        {
            "buffer" : 0,
            "byteLength" : 62976,
            "byteOffset" : 1375376
        },
        {
            "buffer" : 0,
            "byteLength" : 5292,
            "byteOffset" : 1438352
        },
        {
            "buffer" : 0,
            "byteLength" : 5292,
            "byteOffset" : 1443644
        },
        {
            "buffer" : 0,
            "byteLength" : 3528,
            "byteOffset" : 1448936
        },
        {
            "buffer" : 0,
            "byteLength" : 4608,
            "byteOffset" : 1452464
        },
        {
            "buffer" : 0,
            "byteLength" : 6300,
            "byteOffset" : 1457072
        },
        {
            "buffer" : 0,
            "byteLength" : 6300,
            "byteOffset" : 1463372
        },
        {
            "buffer" : 0,
            "byteLength" : 4200,
            "byteOffset" : 1469672
        },
        {
            "buffer" : 0,
            "byteLength" : 4800,
            "byteOffset" : 1473872
        }
    ],
    "buffers" : [
        {
            "byteLength" : 1478672,
            "uri" : "data:application/octet-stream;base64,"
        }
    ]
}
