{
    "asset" : {
        "generator" : "Khronos glTF Blender I/O v1.7.33",
        "version" : "2.0"
    },
    "scene" : 0,
    "scenes" : [
        {
            "name" : "Scene",
            "nodes" : [
                0,
                5
            ]
        }
    ],
    "nodes" : [
        {
            "name" : "Empty",
            "scale" : [
                2.84298038482666,
                2.84298038482666,
                2.84298038482666
            ],
            "translation" : [
                0,
                2.4819908142089844,
                0
            ]
        },
        {
            "mesh" : 0,
            "name" : "Circle.011",
            "rotation" : [
                -0.7071068286895752,
                0,
                0,
                0.7071068286895752
            ],
            "scale" : [
                0.7210719585418701,
                0.7210720777511597,
                0.7210719585418701
            ],
            "translation" : [
                0.0017979294061660767,
                0.14131420850753784,
                -1.148947834968567
            ]
        },
        {
            "mesh" : 1,
            "name" : "Cube.013",
            "translation" : [
                0,
                0.21844977140426636,
                0
            ]
        },
        {
            "mesh" : 2,
            "name" : "Plane.027",
            "rotation" : [
                0,
                0.7071065902709961,
                0.7071069478988647,
                4.081988151938276e-07
            ],
            "scale" : [
                0.7516458034515381,
                0.7516458034515381,
                0.7516456842422485
            ],
            "translation" : [
                0.0017979741096496582,
                0.14667931199073792,
                -1.0259889364242554
            ]
        },
        {
            "mesh" : 3,
            "name" : "Plane.043",
            "rotation" : [
                0.44193094968795776,
                0,
                0,
                0.8970491290092468
            ],
            "scale" : [
                0.7210719585418701,
                0.7210720181465149,
                0.7210718989372253
            ],
            "translation" : [
                -0.5251389741897583,
                0.4143291711807251,
                0.8868809342384338
            ]
        },
        {
            "children" : [
                1,
                2,
                3,
                4
            ],
            "mesh" : 4,
            "name" : "Cube.012",
            "rotation" : [
                0.3096744120121002,
                -0.2451573610305786,
                0.08297700434923172,
                0.9149397015571594
            ],
            "scale" : [
                1.386824131011963,
                1.386824131011963,
                1.386824131011963
            ],
            "translation" : [
                -0.4020808935165405,
                2.0546987056732178,
                0.49401941895484924
            ]
        }
    ],
    "materials" : [
        {
            "doubleSided" : true,
            "name" : "2. Yellow.006",
            "pbrMetallicRoughness" : {
                "baseColorFactor" : [
                    0.8009423613548279,
                    0.4598791003227234,
                    0,
                    1
                ],
                "metallicFactor" : 0.10000000149011612,
                "roughnessFactor" : 0.5
            }
        },
        {
            "doubleSided" : true,
            "name" : "2.1 Biru muda.006",
            "pbrMetallicRoughness" : {
                "baseColorFactor" : [
                    0.16434596478939056,
                    0.31350550055503845,
                    0.7874122262001038,
                    1
                ],
                "metallicFactor" : 0.20000000298023224,
                "roughnessFactor" : 0.5
            }
        },
        {
            "doubleSided" : true,
            "name" : "Clay.001",
            "pbrMetallicRoughness" : {
                "baseColorFactor" : [
                    0.4043523669242859,
                    0.10528095811605453,
                    0.016523953527212143,
                    1
                ],
                "metallicFactor" : 0,
                "roughnessFactor" : 0.5
            }
        },
        {
            "doubleSided" : true,
            "emissiveFactor" : [
                0.19433604180812836,
                0.19433604180812836,
                0.19433604180812836
            ],
            "name" : "Material.007",
            "pbrMetallicRoughness" : {
                "baseColorFactor" : [
                    0.800000011920929,
                    0.800000011920929,
                    0.800000011920929,
                    1
                ],
                "metallicFactor" : 0,
                "roughnessFactor" : 0.5
            }
        },
        {
            "doubleSided" : true,
            "name" : "2.1 Biru.004",
            "pbrMetallicRoughness" : {
                "baseColorFactor" : [
                    0,
                    0.08021999895572662,
                    1,
                    1
                ],
                "metallicFactor" : 0.30000001192092896,
                "roughnessFactor" : 0.5
            }
        }
    ],
    "meshes" : [
        {
            "name" : "Circle.025",
            "primitives" : [
                {
                    "attributes" : {
                        "POSITION" : 0,
                        "NORMAL" : 1
                    },
                    "indices" : 2,
                    "material" : 0
                }
            ]
        },
        {
            "name" : "Cube.031",
            "primitives" : [
                {
                    "attributes" : {
                        "POSITION" : 3,
                        "NORMAL" : 4,
                        "TEXCOORD_0" : 5
                    },
                    "indices" : 6,
                    "material" : 1
                }
            ]
        },
        {
            "name" : "Plane.036",
            "primitives" : [
                {
                    "attributes" : {
                        "POSITION" : 7,
                        "NORMAL" : 8
                    },
                    "indices" : 9,
                    "material" : 2
                }
            ]
        },
        {
            "name" : "Plane.037",
            "primitives" : [
                {
                    "attributes" : {
                        "POSITION" : 10,
                        "NORMAL" : 11,
                        "TEXCOORD_0" : 12
                    },
                    "indices" : 13,
                    "material" : 3
                }
            ]
        },
        {
            "name" : "Cube.030",
            "primitives" : [
                {
                    "attributes" : {
                        "POSITION" : 14,
                        "NORMAL" : 15,
                        "TEXCOORD_0" : 16
                    },
                    "indices" : 17,
                    "material" : 4
                }
            ]
        }
    ],
    "accessors" : [
        {
            "bufferView" : 0,
            "componentType" : 5126,
            "count" : 4096,
            "max" : [
                0.5038495063781738,
                0.248582124710083,
                0.5038495659828186
            ],
            "min" : [
                -0.5038495659828186,
                -0.2485821396112442,
                -0.5038495659828186
            ],
            "type" : "VEC3"
        },
        {
            "bufferView" : 1,
            "componentType" : 5126,
            "count" : 4096,
            "type" : "VEC3"
        },
        {
            "bufferView" : 2,
            "componentType" : 5123,
            "count" : 24576,
            "type" : "SCALAR"
        },
        {
            "bufferView" : 3,
            "componentType" : 5126,
            "count" : 21802,
            "max" : [
                0.9317153692245483,
                0.22451235353946686,
                0.9383202791213989
            ],
            "min" : [
                -0.9317154288291931,
                -0.11578398942947388,
                -0.9883008003234863
            ],
            "type" : "VEC3"
        },
        {
            "bufferView" : 4,
            "componentType" : 5126,
            "count" : 21802,
            "type" : "VEC3"
        },
        {
            "bufferView" : 5,
            "componentType" : 5126,
            "count" : 21802,
            "type" : "VEC2"
        },
        {
            "bufferView" : 6,
            "componentType" : 5123,
            "count" : 117120,
            "type" : "SCALAR"
        },
        {
            "bufferView" : 7,
            "componentType" : 5126,
            "count" : 1666,
            "max" : [
                0.25637054443359375,
                0.08881968259811401,
                0.25637054443359375
            ],
            "min" : [
                -0.25637054443359375,
                -2.449310302734375,
                -0.25637054443359375
            ],
            "type" : "VEC3"
        },
        {
            "bufferView" : 8,
            "componentType" : 5126,
            "count" : 1666,
            "type" : "VEC3"
        },
        {
            "bufferView" : 9,
            "componentType" : 5123,
            "count" : 9984,
            "type" : "SCALAR"
        },
        {
            "bufferView" : 10,
            "componentType" : 5126,
            "count" : 52,
            "max" : [
                0.5629299879074097,
                0.053548626601696014,
                0.2001277506351471
            ],
            "min" : [
                -0.17906907200813293,
                -0.06793926656246185,
                -0.4974744915962219
            ],
            "type" : "VEC3"
        },
        {
            "bufferView" : 11,
            "componentType" : 5126,
            "count" : 52,
            "type" : "VEC3"
        },
        {
            "bufferView" : 12,
            "componentType" : 5126,
            "count" : 52,
            "type" : "VEC2"
        },
        {
            "bufferView" : 13,
            "componentType" : 5123,
            "count" : 288,
            "type" : "SCALAR"
        },
        {
            "bufferView" : 14,
            "componentType" : 5126,
            "count" : 5377,
            "max" : [
                0.988490104675293,
                0.1560424417257309,
                0.988402783870697
            ],
            "min" : [
                -0.988490104675293,
                -0.1560424417257309,
                -0.9879066944122314
            ],
            "type" : "VEC3"
        },
        {
            "bufferView" : 15,
            "componentType" : 5126,
            "count" : 5377,
            "type" : "VEC3"
        },
        {
            "bufferView" : 16,
            "componentType" : 5126,
            "count" : 5377,
            "type" : "VEC2"
        },
        {
            "bufferView" : 17,
            "componentType" : 5123,
            "count" : 27648,
            "type" : "SCALAR"
        }
    ],
    "bufferViews" : [
        {
            "buffer" : 0,
            "byteLength" : 49152,
            "byteOffset" : 0
        },
        {
            "buffer" : 0,
            "byteLength" : 49152,
            "byteOffset" : 49152
        },
        {
            "buffer" : 0,
            "byteLength" : 49152,
            "byteOffset" : 98304
        },
        {
            "buffer" : 0,
            "byteLength" : 261624,
            "byteOffset" : 147456
        },
        {
            "buffer" : 0,
            "byteLength" : 261624,
            "byteOffset" : 409080
        },
        {
            "buffer" : 0,
            "byteLength" : 174416,
            "byteOffset" : 670704
        },
        {
            "buffer" : 0,
            "byteLength" : 234240,
            "byteOffset" : 845120
        },
        {
            "buffer" : 0,
            "byteLength" : 19992,
            "byteOffset" : 1079360
        },
        {
            "buffer" : 0,
            "byteLength" : 19992,
            "byteOffset" : 1099352
        },
        {
            "buffer" : 0,
            "byteLength" : 19968,
            "byteOffset" : 1119344
        },
        {
            "buffer" : 0,
            "byteLength" : 624,
            "byteOffset" : 1139312
        },
        {
            "buffer" : 0,
            "byteLength" : 624,
            "byteOffset" : 1139936
        },
        {
            "buffer" : 0,
            "byteLength" : 416,
            "byteOffset" : 1140560
        },
        {
            "buffer" : 0,
            "byteLength" : 576,
            "byteOffset" : 1140976
        },
        {
            "buffer" : 0,
            "byteLength" : 64524,
            "byteOffset" : 1141552
        },
        {
            "buffer" : 0,
            "byteLength" : 64524,
            "byteOffset" : 1206076
        },
        {
            "buffer" : 0,
            "byteLength" : 43016,
            "byteOffset" : 1270600
        },
        {
            "buffer" : 0,
            "byteLength" : 55296,
            "byteOffset" : 1313616
        }
    ],
    "buffers" : [
        {
            "byteLength" : 1368912,
            "uri" : "data:application/octet-stream;base64,"
        }
    ]
}
